<?xml version="1.0" encoding="UTF-8"?>
<svg xmlns="http://www.w3.org/2000/svg" xmlns:xlink="http://www.w3.org/1999/xlink" width="57px" height="64px" viewBox="0 0 57 64" version="1.1">
<g id="surface1">
<path style=" stroke:none;fill-rule:nonzero;fill:rgb(63.137257%,47.450981%,86.274511%);fill-opacity:1;" d="M 56.746094 18.945312 C 56.746094 17.878906 56.519531 16.9375 56.054688 16.128906 C 55.601562 15.335938 54.921875 14.671875 54.011719 14.144531 C 46.492188 9.816406 38.960938 5.5 31.441406 1.167969 C 29.414062 0 27.449219 0.0429688 25.4375 1.226562 C 22.445312 2.988281 7.453125 11.558594 2.988281 14.140625 C 1.148438 15.203125 0.253906 16.832031 0.253906 18.945312 C 0.25 27.648438 0.253906 36.351562 0.25 45.054688 C 0.25 46.097656 0.46875 47.023438 0.910156 47.816406 C 1.363281 48.636719 2.054688 49.320312 2.984375 49.859375 C 7.453125 52.441406 22.445312 61.011719 25.4375 62.773438 C 27.449219 63.957031 29.414062 64 31.441406 62.832031 C 38.960938 58.5 46.492188 54.183594 54.015625 49.855469 C 54.945312 49.316406 55.636719 48.632812 56.089844 47.816406 C 56.53125 47.019531 56.75 46.097656 56.75 45.054688 C 56.75 45.054688 56.75 27.648438 56.746094 18.945312 "/>
<path style=" stroke:none;fill-rule:nonzero;fill:rgb(15.686275%,0%,40.784314%);fill-opacity:1;" d="M 28.585938 31.914062 L 0.910156 47.816406 C 1.363281 48.636719 2.054688 49.320312 2.984375 49.859375 C 7.453125 52.441406 22.445312 61.011719 25.4375 62.773438 C 27.449219 63.957031 29.414062 64 31.441406 62.832031 C 38.960938 58.5 46.492188 54.183594 54.015625 49.855469 C 54.945312 49.316406 55.636719 48.632812 56.089844 47.816406 Z M 28.585938 31.914062 "/>
<path style=" stroke:none;fill-rule:nonzero;fill:rgb(22.352941%,0%,56.862748%);fill-opacity:1;" d="M 56.746094 18.945312 C 56.746094 17.878906 56.519531 16.9375 56.054688 16.128906 L 28.585938 31.914062 L 56.089844 47.816406 C 56.53125 47.019531 56.75 46.097656 56.75 45.054688 C 56.75 45.054688 56.75 27.648438 56.746094 18.945312 "/>
<path style=" stroke:none;fill-rule:nonzero;fill:rgb(100%,100%,100%);fill-opacity:1;" d="M 44.878906 25.96875 L 44.878906 28.941406 L 47.859375 28.941406 L 47.859375 25.96875 L 49.347656 25.96875 L 49.347656 28.941406 L 52.328125 28.941406 L 52.328125 30.429688 L 49.347656 30.429688 L 49.347656 33.402344 L 52.328125 33.402344 L 52.328125 34.886719 L 49.347656 34.886719 L 49.347656 37.859375 L 47.859375 37.859375 L 47.859375 34.886719 L 44.878906 34.886719 L 44.878906 37.859375 L 43.390625 37.859375 L 43.390625 34.886719 L 40.414062 34.886719 L 40.414062 33.402344 L 43.390625 33.402344 L 43.390625 30.429688 L 40.414062 30.429688 L 40.414062 28.941406 L 43.390625 28.941406 L 43.390625 25.96875 Z M 47.859375 30.429688 L 44.878906 30.429688 L 44.878906 33.402344 L 47.859375 33.402344 Z M 47.859375 30.429688 "/>
<path style=" stroke:none;fill-rule:nonzero;fill:rgb(100%,100%,100%);fill-opacity:1;" d="M 28.648438 11.042969 C 36.417969 11.042969 43.199219 15.253906 46.832031 21.511719 L 46.796875 21.453125 L 37.65625 26.703125 C 35.855469 23.660156 32.554688 21.605469 28.765625 21.566406 L 28.648438 21.5625 C 22.871094 21.5625 18.191406 26.238281 18.191406 32 C 18.1875 33.816406 18.664062 35.601562 19.570312 37.175781 C 21.371094 40.316406 24.761719 42.4375 28.648438 42.4375 C 32.558594 42.4375 35.964844 40.289062 37.757812 37.117188 L 37.714844 37.191406 L 46.84375 42.46875 C 43.25 48.675781 36.558594 52.871094 28.882812 52.957031 L 28.648438 52.957031 C 20.855469 52.957031 14.050781 48.722656 10.425781 42.429688 C 8.660156 39.359375 7.644531 35.796875 7.644531 32 C 7.644531 20.425781 17.046875 11.042969 28.648438 11.042969 Z M 28.648438 11.042969 "/>
</g>
</svg>
