<?xml version="1.0" encoding="UTF-8"?>
<svg xmlns="http://www.w3.org/2000/svg" xmlns:xlink="http://www.w3.org/1999/xlink" width="100px" height="64px" viewBox="0 0 100 64" version="1.1">
<defs>
<linearGradient id="linear0" gradientUnits="userSpaceOnUse" x1="1.511" y1="1.192" x2="1.657" y2="1.192" gradientTransform="matrix(21.560598,-12.787684,-12.73973,-21.641755,28.372645,84.445761)">
<stop offset="0" style="stop-color:rgb(56.470588%,61.176471%,66.27451%);stop-opacity:1;"/>
<stop offset="1" style="stop-color:rgb(92.941176%,92.941176%,93.333333%);stop-opacity:1;"/>
</linearGradient>
<linearGradient id="linear1" gradientUnits="userSpaceOnUse" x1="0.981" y1="-9.224" x2="1.127" y2="-9.224" gradientTransform="matrix(17.348163,0,0,-17.413463,28.816866,-156.472838)">
<stop offset="0" style="stop-color:rgb(57.647059%,62.352941%,67.058824%);stop-opacity:1;"/>
<stop offset="1" style="stop-color:rgb(86.27451%,87.058824%,88.235294%);stop-opacity:1;"/>
</linearGradient>
<radialGradient id="radial0" gradientUnits="userSpaceOnUse" cx="1.935" cy="2.23" fx="1.935" fy="2.23" r="0.146" gradientTransform="matrix(-22.118477,-3.334937,-6.719531,44.403445,116.388372,-76.773329)">
<stop offset="0" style="stop-color:rgb(93.333333%,20.784314%,17.254902%);stop-opacity:1;"/>
<stop offset="1" style="stop-color:rgb(66.27451%,11.372549%,13.333333%);stop-opacity:1;"/>
</radialGradient>
</defs>
<g id="surface1">
<path style=" stroke:none;fill-rule:nonzero;fill:url(#linear0);" d="M 64.296875 20.378906 L 55.59375 23.242188 L 48.011719 26.601562 L 45.894531 27.164062 C 45.355469 27.6875 44.792969 28.207031 44.167969 28.726562 C 43.5 29.3125 42.871094 29.832031 42.398438 30.222656 C 41.855469 30.65625 41.078125 31.4375 40.667969 31.933594 C 40.066406 32.695312 39.589844 33.496094 39.394531 34.101562 C 39.027344 35.207031 39.199219 36.335938 39.914062 37.375 C 40.800781 38.699219 42.589844 40.042969 44.664062 40.953125 C 45.722656 41.429688 47.515625 42.015625 48.855469 42.363281 C 51.078125 42.925781 55.398438 43.554688 57.777344 43.640625 C 58.25 43.664062 58.898438 43.664062 58.921875 43.640625 C 58.964844 43.597656 59.351562 42.90625 59.761719 42.015625 C 61.230469 39.023438 62.269531 36.207031 62.851562 33.820312 C 63.195312 32.367188 63.457031 30.4375 63.652344 28.140625 C 63.695312 27.492188 63.714844 25.34375 63.671875 24.628906 C 63.605469 23.4375 63.5 22.480469 63.347656 21.527344 C 63.328125 21.398438 63.304688 21.269531 63.328125 21.269531 C 63.347656 21.246094 63.433594 21.226562 64.515625 20.921875 Z M 62.3125 21.550781 C 62.398438 21.550781 62.59375 23.589844 62.65625 24.867188 C 62.679688 25.128906 62.65625 25.324219 62.65625 25.324219 C 62.613281 25.324219 61.554688 24.695312 60.777344 24.21875 C 60.128906 23.804688 58.878906 22.960938 58.683594 22.808594 C 58.617188 22.765625 58.617188 22.765625 59.15625 22.570312 C 60.066406 22.242188 62.226562 21.550781 62.3125 21.550781 Z M 57.863281 23.023438 C 57.925781 23.023438 58.078125 23.109375 58.445312 23.328125 C 59.804688 24.171875 61.640625 25.214844 62.441406 25.5625 C 62.679688 25.667969 62.699219 25.625 62.160156 26.015625 C 60.972656 26.839844 59.460938 27.640625 57.644531 28.445312 C 57.320312 28.597656 57.0625 28.703125 57.042969 28.703125 C 57.019531 28.703125 57.0625 28.53125 57.128906 28.335938 C 57.558594 26.6875 57.820312 25.019531 57.839844 23.695312 C 57.796875 23.023438 57.796875 23.023438 57.863281 23.023438 Z M 56.953125 23.371094 C 57 23.414062 56.976562 24.890625 56.910156 25.300781 C 56.804688 26.253906 56.609375 27.164062 56.308594 28.183594 C 56.242188 28.421875 56.175781 28.640625 56.15625 28.640625 C 56.132812 28.683594 55.226562 27.792969 54.925781 27.445312 C 54.40625 26.863281 54.015625 26.253906 53.714844 25.667969 C 53.5625 25.367188 53.328125 24.78125 53.347656 24.78125 C 53.457031 24.695312 56.933594 23.347656 56.953125 23.371094 Z M 52.65625 25.0625 C 52.699219 25.085938 52.742188 25.191406 52.765625 25.300781 C 52.980469 25.886719 53.457031 26.730469 53.867188 27.253906 C 54.320312 27.835938 54.902344 28.488281 55.378906 28.898438 C 55.53125 29.03125 55.679688 29.160156 55.703125 29.179688 C 55.746094 29.226562 55.746094 29.226562 54.6875 29.613281 C 53.433594 30.09375 52.09375 30.570312 50.539062 31.066406 C 50.171875 31.199219 49.804688 31.304688 49.4375 31.4375 C 49.375 31.457031 49.394531 31.414062 49.566406 31.15625 C 50.34375 29.941406 51.511719 27.578125 52.160156 25.886719 C 52.269531 25.605469 52.375 25.300781 52.398438 25.234375 C 52.417969 25.148438 52.460938 25.105469 52.546875 25.0625 C 52.59375 25.085938 52.636719 25.0625 52.65625 25.0625 Z M 51.339844 25.605469 C 51.359375 25.625 51.015625 26.320312 50.691406 26.96875 C 50.042969 28.226562 49.351562 29.441406 48.421875 30.9375 C 48.273438 31.199219 48.121094 31.4375 48.097656 31.457031 C 48.054688 31.5 48.054688 31.5 47.949219 31.285156 C 47.730469 30.851562 47.539062 30.265625 47.453125 29.746094 C 47.34375 29.226562 47.363281 28.335938 47.496094 27.773438 C 47.582031 27.359375 47.582031 27.359375 47.773438 27.273438 C 48.574219 26.863281 51.296875 25.582031 51.339844 25.605469 Z M 62.679688 26.082031 L 62.679688 26.363281 C 62.679688 27.835938 62.527344 29.855469 62.289062 31.328125 C 62.246094 31.589844 62.226562 31.804688 62.203125 31.804688 C 62.203125 31.804688 62.007812 31.761719 61.792969 31.695312 C 60.800781 31.394531 59.742188 30.9375 58.769531 30.394531 C 58.121094 30.046875 57.191406 29.464844 57.234375 29.441406 C 57.234375 29.441406 57.515625 29.289062 57.839844 29.117188 C 59.136719 28.445312 60.367188 27.707031 61.449219 26.992188 C 61.859375 26.730469 62.460938 26.277344 62.59375 26.167969 Z M 46.371094 28.03125 C 46.394531 28.03125 46.394531 28.074219 46.351562 28.3125 C 46.328125 28.488281 46.285156 28.8125 46.285156 29.03125 C 46.242188 29.984375 46.394531 30.699219 46.867188 31.675781 C 46.996094 31.933594 47.105469 32.171875 47.105469 32.171875 C 47.0625 32.21875 42.699219 33.496094 41.339844 33.863281 C 40.929688 33.972656 40.582031 34.082031 40.539062 34.082031 C 40.496094 34.101562 40.496094 34.082031 40.496094 33.972656 C 40.648438 32.996094 41.382812 31.738281 42.417969 30.65625 C 43.109375 29.941406 43.648438 29.527344 44.578125 28.988281 C 45.25 28.640625 46.261719 28.054688 46.371094 28.03125 C 46.351562 28.03125 46.351562 28.03125 46.371094 28.03125 Z M 56.632812 29.875 C 56.632812 29.875 56.804688 29.960938 56.976562 30.070312 C 58.378906 30.894531 60.347656 31.652344 62.007812 32.042969 L 62.160156 32.085938 L 61.945312 32.195312 C 61.058594 32.695312 58.1875 33.886719 55.25 34.992188 C 54.816406 35.144531 54.40625 35.316406 54.320312 35.339844 C 54.234375 35.382812 54.167969 35.382812 54.167969 35.382812 C 54.167969 35.382812 54.277344 35.144531 54.429688 34.863281 C 55.25 33.324219 56.070312 31.4375 56.5 30.136719 C 56.585938 29.984375 56.632812 29.875 56.632812 29.875 Z M 55.59375 30.222656 C 55.59375 30.222656 55.550781 30.375 55.484375 30.527344 C 54.902344 31.914062 54.167969 33.429688 53.195312 35.144531 C 52.960938 35.578125 52.742188 35.925781 52.742188 35.925781 C 52.742188 35.925781 52.546875 35.816406 52.3125 35.664062 C 50.90625 34.796875 49.675781 33.757812 48.875 32.714844 L 48.769531 32.5625 L 49.375 32.390625 C 51.511719 31.804688 53.347656 31.175781 55.164062 30.394531 C 55.355469 30.308594 55.574219 30.222656 55.59375 30.222656 Z M 62.09375 32.5 C 62.09375 32.652344 61.769531 34.015625 61.492188 34.992188 C 61.253906 35.816406 61.058594 36.464844 60.691406 37.613281 C 60.539062 38.113281 60.390625 38.527344 60.390625 38.527344 C 60.390625 38.527344 60.347656 38.527344 60.300781 38.503906 C 58.359375 38.15625 56.585938 37.660156 54.945312 36.988281 C 54.492188 36.792969 53.824219 36.507812 53.78125 36.464844 C 53.757812 36.445312 54.167969 36.269531 54.664062 36.054688 C 57.667969 34.730469 60.757812 33.257812 61.835938 32.605469 C 61.964844 32.542969 62.074219 32.5 62.09375 32.5 Z M 47.085938 33.019531 C 47.105469 33.039062 46.261719 34.234375 45.097656 35.878906 C 44.6875 36.464844 44.210938 37.136719 44.039062 37.375 C 43.867188 37.636719 43.585938 38.027344 43.433594 38.265625 L 43.152344 38.699219 L 42.851562 38.4375 C 42.503906 38.15625 41.902344 37.527344 41.621094 37.179688 C 41.058594 36.464844 40.667969 35.730469 40.519531 35.058594 C 40.453125 34.730469 40.453125 34.578125 40.519531 34.558594 C 40.625 34.535156 42.375 34.125 44.015625 33.734375 C 44.925781 33.519531 45.984375 33.277344 46.371094 33.171875 C 46.761719 33.085938 47.0625 33.019531 47.085938 33.019531 Z M 47.925781 33.34375 L 48.140625 33.582031 C 49.09375 34.644531 50.066406 35.425781 51.230469 36.121094 C 51.445312 36.226562 51.597656 36.335938 51.578125 36.359375 C 51.535156 36.402344 47.515625 37.832031 45.636719 38.460938 C 44.601562 38.828125 43.734375 39.132812 43.714844 39.132812 L 43.585938 39.046875 L 43.476562 38.960938 L 43.671875 38.675781 C 44.296875 37.789062 45.074219 36.792969 46.761719 34.753906 Z M 53.175781 37.117188 C 53.175781 37.117188 53.476562 37.226562 53.824219 37.355469 C 54.6875 37.679688 55.355469 37.875 56.265625 38.113281 C 57.386719 38.394531 59.007812 38.675781 59.957031 38.765625 C 60.109375 38.785156 60.171875 38.785156 60.152344 38.808594 C 60.109375 38.828125 59.136719 39.15625 58.421875 39.394531 C 57.300781 39.738281 53.84375 40.78125 51.015625 41.582031 C 50.496094 41.734375 50.042969 41.863281 50.023438 41.863281 C 49.957031 41.886719 49.742188 41.820312 49.742188 41.800781 C 49.742188 41.777344 49.890625 41.582031 50.085938 41.367188 C 51.035156 40.238281 51.964844 38.960938 52.765625 37.765625 C 52.980469 37.375 53.175781 37.117188 53.175781 37.117188 Z M 52.007812 37.136719 C 52.007812 37.136719 51.554688 37.898438 50.734375 39.199219 C 50.390625 39.738281 50 40.367188 49.847656 40.585938 C 49.71875 40.800781 49.523438 41.128906 49.417969 41.324219 L 49.222656 41.667969 L 49.113281 41.648438 C 48.875 41.582031 47.214844 40.996094 46.78125 40.824219 C 46.242188 40.605469 45.679688 40.347656 45.25 40.109375 C 44.730469 39.828125 44.058594 39.394531 44.125 39.394531 C 44.148438 39.394531 45.03125 39.132812 46.132812 38.851562 C 49.007812 38.070312 50.605469 37.613281 51.664062 37.269531 C 51.835938 37.179688 52.007812 37.136719 52.007812 37.136719 Z M 60.195312 39.066406 C 60.238281 39.132812 59.15625 42.101562 58.769531 43.035156 C 58.683594 43.253906 58.660156 43.296875 58.597656 43.296875 C 58.488281 43.296875 56.933594 43.078125 56.003906 42.925781 C 54.363281 42.667969 51.621094 42.191406 50.929688 42.039062 L 50.777344 41.996094 L 51.75 41.777344 C 53.867188 41.300781 54.859375 41.039062 55.898438 40.738281 C 57.191406 40.347656 58.464844 39.847656 59.761719 39.242188 C 59.980469 39.15625 60.152344 39.066406 60.195312 39.066406 Z M 60.195312 39.066406 "/>
<path style=" stroke:none;fill-rule:nonzero;fill:url(#linear1);" d="M 55.3125 0.0234375 C 55.164062 0 52.828125 0.84375 51.316406 1.453125 C 49.289062 2.277344 47.710938 3.078125 46.738281 3.773438 C 46.371094 4.03125 45.917969 4.488281 45.851562 4.660156 C 45.832031 4.726562 45.808594 4.8125 45.808594 4.878906 L 46.695312 5.722656 L 48.789062 6.394531 L 53.78125 7.285156 L 59.480469 8.261719 L 59.546875 7.761719 L 59.503906 7.761719 L 58.746094 7.652344 L 58.597656 7.394531 C 57.820312 6.027344 56.953125 4.3125 56.457031 3.164062 C 56.070312 2.277344 55.703125 1.234375 55.507812 0.5 C 55.398438 0.0429688 55.378906 0.0234375 55.3125 0.0234375 Z M 55.207031 0.347656 C 55.226562 0.347656 55.25 0.542969 55.269531 0.757812 C 55.378906 1.691406 55.59375 2.578125 55.917969 3.535156 C 56.15625 4.269531 56.15625 4.226562 55.875 4.140625 C 55.207031 3.945312 52.203125 3.425781 50.023438 3.121094 C 49.675781 3.078125 49.375 3.035156 49.375 3.011719 C 49.351562 2.992188 50.949219 2.144531 51.640625 1.820312 C 52.546875 1.410156 55.03125 0.390625 55.207031 0.347656 Z M 48.855469 3.316406 L 49.113281 3.402344 C 50.519531 3.878906 54.015625 4.554688 55.960938 4.703125 C 56.175781 4.726562 56.371094 4.746094 56.371094 4.746094 C 56.371094 4.746094 56.199219 4.855469 55.960938 4.964844 C 55.03125 5.441406 53.996094 6.003906 53.28125 6.460938 C 53.066406 6.589844 52.871094 6.699219 52.851562 6.699219 C 52.828125 6.699219 52.679688 6.675781 52.546875 6.65625 L 52.289062 6.613281 L 51.640625 5.960938 C 50.476562 4.835938 49.566406 3.96875 49.222656 3.621094 Z M 48.597656 3.511719 L 49.523438 4.683594 C 50.023438 5.332031 50.539062 5.941406 50.648438 6.09375 C 50.757812 6.222656 50.84375 6.351562 50.84375 6.351562 C 50.820312 6.375 49.503906 6.113281 48.8125 5.960938 C 48.097656 5.789062 47.796875 5.722656 47.363281 5.570312 L 46.996094 5.464844 L 46.996094 5.375 C 46.996094 4.941406 47.558594 4.269531 48.507812 3.597656 Z M 56.480469 5.09375 C 56.5 5.09375 56.542969 5.160156 56.609375 5.332031 C 56.824219 5.832031 57.539062 7.15625 57.710938 7.414062 C 57.753906 7.5 57.863281 7.5 56.933594 7.347656 C 54.707031 6.980469 53.996094 6.871094 53.996094 6.851562 C 53.996094 6.851562 54.0625 6.808594 54.148438 6.742188 C 54.839844 6.351562 55.53125 5.875 56.15625 5.355469 C 56.308594 5.226562 56.4375 5.117188 56.480469 5.09375 C 56.457031 5.09375 56.480469 5.09375 56.480469 5.09375 Z M 56.480469 5.09375 "/>
<path style=" stroke:none;fill-rule:nonzero;fill:url(#radial0);" d="M 45.894531 4.554688 C 45.894531 4.554688 45.746094 4.792969 45.894531 5.136719 C 45.984375 5.355469 46.242188 5.613281 46.523438 5.875 C 46.523438 5.875 49.460938 8.738281 49.804688 9.148438 C 51.425781 11.035156 52.136719 12.878906 52.203125 15.414062 C 52.246094 17.0625 51.945312 18.492188 51.167969 20.164062 C 49.804688 23.15625 46.910156 26.472656 42.460938 30.136719 L 43.109375 29.917969 C 43.519531 29.59375 44.101562 29.269531 45.441406 28.53125 C 48.554688 26.820312 52.03125 25.257812 56.308594 23.652344 C 62.460938 21.332031 72.59375 18.601562 78.359375 17.710938 L 78.964844 17.625 L 78.878906 17.472656 C 78.359375 16.652344 77.992188 16.152344 77.558594 15.609375 C 76.308594 14.027344 74.773438 12.769531 72.894531 11.707031 C 70.324219 10.253906 66.976562 9.128906 62.742188 8.28125 C 61.945312 8.128906 60.195312 7.828125 58.769531 7.609375 C 55.746094 7.132812 53.800781 6.808594 51.664062 6.4375 C 50.886719 6.308594 49.742188 6.113281 48.984375 5.941406 C 48.597656 5.855469 47.839844 5.679688 47.234375 5.464844 C 46.71875 5.3125 46.046875 5.117188 45.894531 4.554688 Z M 47.601562 6.222656 C 47.601562 6.222656 47.710938 6.265625 47.863281 6.308594 C 48.121094 6.394531 48.445312 6.503906 48.8125 6.589844 C 49.09375 6.675781 49.394531 6.742188 49.675781 6.828125 C 50.066406 6.9375 50.410156 7.023438 50.410156 7.023438 C 50.453125 7.066406 51.125 9.214844 51.339844 10.015625 C 51.425781 10.320312 51.492188 10.601562 51.492188 10.601562 C 51.492188 10.601562 51.402344 10.492188 51.316406 10.339844 C 50.539062 8.976562 49.332031 7.609375 47.925781 6.480469 C 47.730469 6.332031 47.601562 6.222656 47.601562 6.222656 Z M 50.84375 7.109375 C 50.886719 7.109375 51.015625 7.132812 51.1875 7.175781 C 52.3125 7.4375 54.320312 7.804688 55.59375 8.023438 C 55.808594 8.066406 55.984375 8.085938 55.984375 8.109375 C 55.984375 8.128906 55.898438 8.171875 55.808594 8.21875 C 55.59375 8.324219 54.707031 8.84375 54.429688 9.039062 C 53.695312 9.539062 53.046875 10.058594 52.570312 10.535156 L 52.226562 10.882812 C 52.226562 10.882812 52.179688 10.773438 52.160156 10.625 C 51.921875 9.710938 51.425781 8.347656 50.972656 7.394531 C 50.886719 7.261719 50.820312 7.109375 50.84375 7.109375 C 50.820312 7.109375 50.820312 7.109375 50.84375 7.109375 Z M 56.523438 8.195312 C 56.566406 8.21875 56.632812 8.433594 56.761719 8.933594 C 57 9.886719 57.105469 10.96875 57.085938 11.96875 C 57.0625 12.25 57.0625 12.507812 57.042969 12.53125 L 57.019531 12.597656 L 56.675781 12.488281 C 55.960938 12.269531 54.816406 11.925781 53.84375 11.640625 C 53.28125 11.492188 52.828125 11.359375 52.828125 11.339844 C 52.828125 11.296875 53.648438 10.472656 53.996094 10.167969 C 54.664062 9.582031 56.480469 8.171875 56.523438 8.195312 Z M 56.976562 8.261719 C 57 8.238281 59.699219 8.714844 60.929688 8.953125 C 61.835938 9.128906 63.175781 9.410156 63.261719 9.453125 C 63.304688 9.472656 63.152344 9.539062 62.722656 9.734375 C 60.992188 10.515625 59.699219 11.230469 58.402344 12.074219 C 58.054688 12.292969 57.777344 12.488281 57.777344 12.488281 C 57.777344 12.488281 57.753906 12.292969 57.753906 12.074219 C 57.753906 10.820312 57.496094 9.5625 57.042969 8.476562 C 57.019531 8.367188 56.976562 8.28125 56.976562 8.261719 Z M 63.972656 9.648438 C 63.996094 9.667969 63.910156 10.210938 63.824219 10.515625 C 63.585938 11.492188 62.9375 12.964844 62.160156 14.332031 C 62.03125 14.570312 61.902344 14.765625 61.878906 14.785156 C 61.859375 14.785156 61.683594 14.699219 61.492188 14.570312 C 60.734375 14.113281 59.847656 13.703125 58.921875 13.3125 C 58.660156 13.203125 58.421875 13.117188 58.421875 13.09375 C 58.378906 13.050781 60.496094 11.640625 61.621094 10.96875 C 62.503906 10.429688 63.953125 9.625 63.972656 9.648438 Z M 64.472656 9.734375 C 64.535156 9.734375 65.722656 10.058594 66.351562 10.253906 C 67.90625 10.710938 69.675781 11.359375 70.820312 11.902344 L 71.296875 12.121094 L 70.949219 12.207031 C 68.121094 12.855469 65.703125 13.613281 63.371094 14.570312 C 63.175781 14.65625 63.003906 14.722656 63.003906 14.722656 C 62.980469 14.722656 63.046875 14.570312 63.132812 14.375 C 63.84375 12.878906 64.296875 11.316406 64.40625 9.972656 C 64.449219 9.84375 64.472656 9.734375 64.472656 9.734375 Z M 52.546875 12.488281 C 52.570312 12.464844 53.476562 12.683594 53.972656 12.835938 C 54.730469 13.050781 56.308594 13.570312 56.308594 13.613281 C 56.308594 13.613281 56.132812 13.765625 55.917969 13.960938 C 55.054688 14.675781 54.234375 15.4375 53.238281 16.410156 C 52.9375 16.695312 52.699219 16.933594 52.679688 16.933594 C 52.65625 16.933594 52.65625 16.890625 52.65625 16.84375 C 52.808594 15.738281 52.765625 14.308594 52.570312 12.855469 C 52.570312 12.640625 52.546875 12.488281 52.546875 12.488281 Z M 71.773438 12.507812 C 71.792969 12.53125 71.339844 13.203125 71.082031 13.59375 C 70.691406 14.15625 70.109375 14.914062 68.792969 16.5625 C 68.101562 17.429688 67.324219 18.429688 67.0625 18.753906 C 66.804688 19.078125 66.589844 19.359375 66.566406 19.359375 C 66.566406 19.359375 66.480469 19.253906 66.371094 19.101562 C 65.636719 17.996094 64.753906 17.019531 63.714844 16.152344 C 63.519531 15.976562 63.304688 15.804688 63.21875 15.761719 C 63.152344 15.71875 63.089844 15.652344 63.089844 15.652344 C 63.089844 15.632812 64.210938 15.15625 65.054688 14.808594 C 66.542969 14.199219 68.574219 13.464844 70.085938 13.007812 C 70.90625 12.726562 71.773438 12.488281 71.773438 12.507812 Z M 72.289062 12.640625 C 72.3125 12.640625 72.484375 12.703125 72.65625 12.835938 C 74.253906 13.746094 75.832031 14.9375 77.0625 16.152344 C 77.410156 16.5 78.273438 17.386719 78.25 17.410156 C 78.25 17.410156 77.949219 17.429688 77.601562 17.453125 C 74.839844 17.667969 71.296875 18.253906 67.882812 19.078125 C 67.644531 19.121094 67.453125 19.1875 67.429688 19.1875 C 67.410156 19.1875 67.667969 18.925781 67.992188 18.625 C 70 16.695312 70.90625 15.457031 71.988281 13.289062 C 72.140625 12.921875 72.269531 12.660156 72.289062 12.640625 C 72.269531 12.640625 72.269531 12.640625 72.289062 12.640625 Z M 57.625 14.136719 C 57.710938 14.15625 58.574219 14.570312 59.222656 14.871094 C 59.804688 15.175781 60.714844 15.652344 60.757812 15.675781 C 60.757812 15.675781 60.453125 15.847656 60.066406 16.042969 C 58.832031 16.671875 57.777344 17.257812 56.652344 17.929688 C 56.328125 18.125 56.070312 18.277344 56.070312 18.277344 C 56.046875 18.277344 56.046875 18.253906 56.21875 17.929688 C 56.804688 16.84375 57.277344 15.542969 57.558594 14.289062 C 57.582031 14.199219 57.601562 14.136719 57.625 14.136719 Z M 56.78125 14.308594 C 56.804688 14.332031 56.585938 15.132812 56.4375 15.589844 C 56.175781 16.433594 55.703125 17.472656 55.269531 18.277344 C 55.164062 18.472656 55.011719 18.730469 54.925781 18.882812 L 54.75 19.144531 L 54.382812 18.796875 C 53.953125 18.386719 53.605469 18.125 53.152344 17.886719 C 52.980469 17.800781 52.828125 17.710938 52.828125 17.691406 C 52.828125 17.648438 53.953125 16.605469 54.816406 15.871094 C 55.441406 15.328125 56.761719 14.289062 56.78125 14.308594 Z M 62.007812 16.457031 L 62.332031 16.671875 C 63.066406 17.148438 63.929688 17.800781 64.601562 18.363281 C 64.96875 18.667969 65.703125 19.316406 65.855469 19.492188 L 65.941406 19.578125 L 65.398438 19.730469 C 62.375 20.574219 60.066406 21.3125 57.34375 22.308594 C 57.042969 22.417969 56.78125 22.503906 56.761719 22.503906 C 56.71875 22.503906 56.695312 22.546875 57.363281 21.917969 C 59.09375 20.3125 60.648438 18.535156 61.792969 16.824219 Z M 60.625 16.800781 C 60.648438 16.824219 59.742188 18.082031 59.199219 18.820312 C 58.554688 19.6875 57.410156 21.117188 56.632812 22.046875 C 56.308594 22.4375 56.027344 22.765625 56.003906 22.765625 C 55.984375 22.765625 55.984375 22.675781 55.984375 22.527344 C 55.984375 21.722656 55.789062 20.878906 55.421875 20.140625 C 55.269531 19.835938 55.25 19.773438 55.269531 19.730469 C 55.398438 19.621094 57.300781 18.515625 58.53125 17.863281 C 59.332031 17.429688 60.605469 16.78125 60.625 16.800781 Z M 52.3125 18.839844 C 52.332031 18.839844 52.484375 18.925781 52.65625 19.011719 C 53.066406 19.253906 53.457031 19.511719 53.78125 19.773438 C 53.800781 19.792969 53.628906 19.925781 53.390625 20.097656 C 52.765625 20.554688 51.8125 21.269531 51.273438 21.703125 C 50.691406 22.15625 50.667969 22.179688 50.734375 22.070312 C 51.167969 21.398438 51.382812 21.03125 51.621094 20.554688 C 51.8125 20.121094 52.03125 19.621094 52.179688 19.164062 C 52.226562 18.992188 52.289062 18.839844 52.3125 18.839844 Z M 54.535156 20.597656 C 54.578125 20.597656 54.601562 20.640625 54.796875 20.921875 C 55.164062 21.484375 55.464844 22.242188 55.53125 22.851562 L 55.550781 22.980469 L 54.644531 23.328125 C 53.023438 23.957031 51.535156 24.585938 50.539062 25.039062 C 50.257812 25.171875 49.761719 25.410156 49.4375 25.5625 C 49.113281 25.734375 48.855469 25.84375 48.855469 25.84375 C 48.855469 25.84375 49.050781 25.691406 49.308594 25.496094 C 51.273438 24.066406 52.980469 22.480469 54.253906 20.921875 C 54.382812 20.746094 54.515625 20.597656 54.535156 20.597656 Z M 53.519531 20.835938 C 53.542969 20.855469 52.785156 21.722656 52.289062 22.242188 C 51.015625 23.542969 49.761719 24.5625 48.207031 25.5625 C 48.011719 25.691406 47.839844 25.800781 47.820312 25.820312 C 47.773438 25.84375 47.839844 25.777344 48.507812 25.039062 C 48.941406 24.5625 49.265625 24.171875 49.65625 23.695312 C 49.914062 23.371094 49.957031 23.328125 50.300781 23.066406 C 51.253906 22.332031 53.476562 20.8125 53.519531 20.835938 Z M 53.519531 20.835938 "/>
<path style=" stroke:none;fill-rule:nonzero;fill:rgb(13.725491%,12.156863%,12.156863%);fill-opacity:1;" d="M 25.011719 48.195312 C 24.878906 48.195312 24.773438 48.21875 24.644531 48.21875 C 22.179688 48.347656 20.539062 49.429688 19.566406 51.554688 C 18.746094 53.464844 18.832031 55.976562 19.566406 57.886719 C 20.429688 59.773438 21.835938 60.769531 24.167969 61.136719 C 24.664062 61.226562 24.988281 61.484375 25.960938 62.613281 L 27.148438 64 L 29.285156 64 L 27.859375 62.570312 C 27.082031 61.789062 26.4375 61.09375 26.4375 61.03125 C 26.4375 60.964844 26.738281 60.835938 27.105469 60.726562 C 28.316406 60.359375 29.308594 59.425781 30 57.996094 C 30.5625 56.84375 30.648438 56.5 30.734375 55.066406 C 30.949219 50.820312 28.726562 48.171875 25.011719 48.195312 Z M 26.890625 59.296875 C 25.851562 59.792969 24.339844 59.902344 23.347656 59.535156 C 22.332031 59.164062 21.339844 58.101562 20.882812 56.890625 C 20.386719 55.566406 20.453125 53.136719 21.035156 52.054688 C 21.941406 50.320312 23.152344 49.519531 24.902344 49.519531 C 27.492188 49.519531 28.984375 51.121094 29.179688 54.113281 C 29.328125 56.628906 28.488281 58.515625 26.890625 59.296875 Z M 63.84375 51.816406 C 62.9375 51.816406 62.269531 52.183594 61.792969 52.898438 L 61.425781 53.464844 L 61.425781 51.988281 L 59.871094 51.988281 L 59.871094 60.855469 L 61.425781 60.855469 L 61.425781 58.015625 C 61.425781 55.414062 61.449219 55.109375 61.816406 54.417969 C 62.3125 53.441406 63.175781 52.964844 63.996094 53.179688 L 64.558594 53.332031 L 64.558594 51.792969 Z M 54.730469 51.730469 C 54.429688 51.730469 54.105469 51.773438 53.78125 51.835938 C 51.707031 52.378906 50.539062 54.375 50.605469 56.433594 C 50.605469 58.144531 50.929688 59.011719 51.769531 59.925781 C 53.457031 61.3125 54.988281 61.421875 57.0625 60.683594 C 57.410156 60.53125 57.796875 60.359375 57.796875 60.359375 L 57.796875 58.96875 L 57.0625 59.359375 C 55.398438 60.097656 54.125 60.097656 53.109375 59.230469 C 52.460938 58.578125 52.179688 57.777344 52.050781 56.890625 L 58.316406 56.890625 L 58.316406 55.695312 C 58.316406 53.246094 56.847656 51.707031 54.730469 51.730469 Z M 52.203125 55.632812 C 52.203125 55.632812 52.441406 54.113281 53.28125 53.507812 C 53.695312 53.226562 54.167969 53.074219 54.644531 53.074219 C 55.117188 53.074219 55.574219 53.226562 55.960938 53.527344 C 56.738281 54.136719 56.890625 55.632812 56.890625 55.632812 Z M 14.75 54.027344 C 13.066406 53.007812 12.308594 52.269531 12.417969 51.402344 C 12.675781 48.996094 15.636719 49.324219 17.277344 50.234375 L 17.300781 48.605469 C 17.300781 48.605469 16.390625 48.21875 15.097656 48.195312 C 13.109375 48.171875 11.8125 48.824219 11.207031 50.167969 C 10.324219 52.140625 11.101562 53.636719 13.953125 55.285156 C 15.550781 56.21875 16.261719 57.019531 16.261719 57.90625 C 16.261719 59.730469 14.082031 60.359375 11.8125 59.230469 C 11.339844 58.992188 10.949219 58.796875 10.925781 58.796875 C 10.839844 59.316406 10.882812 60.554688 10.882812 60.554688 C 10.882812 60.554688 11.574219 60.835938 12.613281 61.050781 C 15.203125 61.570312 17.535156 60.359375 17.773438 58.386719 C 17.945312 56.519531 17.277344 55.542969 14.75 54.027344 Z M 77.601562 51.730469 C 77.300781 51.730469 76.976562 51.773438 76.652344 51.835938 C 74.578125 52.378906 73.414062 54.375 73.476562 56.433594 C 73.476562 58.144531 73.800781 59.011719 74.644531 59.902344 C 76.328125 61.289062 77.863281 61.421875 79.957031 60.660156 C 80.304688 60.507812 80.691406 60.335938 80.691406 60.335938 L 80.691406 58.949219 L 79.957031 59.339844 C 78.273438 60.074219 77.019531 60.074219 76.003906 59.207031 C 75.355469 58.558594 75.078125 57.777344 74.945312 56.867188 L 81.1875 56.867188 L 81.1875 55.675781 C 81.1875 53.226562 79.71875 51.6875 77.601562 51.730469 Z M 75.054688 55.609375 C 75.054688 55.609375 75.292969 54.09375 76.132812 53.484375 C 76.546875 53.179688 77.019531 53.050781 77.472656 53.050781 C 77.925781 53.050781 78.402344 53.203125 78.792969 53.507812 C 79.570312 54.113281 79.71875 55.609375 79.71875 55.609375 Z M 46.585938 54.046875 C 44.902344 53.03125 44.167969 52.292969 44.253906 51.425781 C 44.515625 49.019531 47.472656 49.34375 49.113281 50.253906 L 49.136719 48.628906 C 49.136719 48.628906 48.230469 48.238281 46.933594 48.21875 C 44.945312 48.195312 43.648438 48.84375 43.046875 50.191406 C 42.160156 52.164062 42.957031 53.660156 45.789062 55.304688 C 47.386719 56.238281 48.078125 57.039062 48.078125 57.90625 C 48.078125 59.730469 45.894531 60.378906 43.628906 59.230469 C 43.175781 58.992188 42.765625 58.796875 42.742188 58.796875 C 42.65625 59.316406 42.699219 60.554688 42.699219 60.554688 C 42.699219 60.554688 43.390625 60.835938 44.425781 61.050781 C 47.019531 61.570312 49.351562 60.359375 49.589844 58.386719 C 49.785156 56.542969 49.113281 55.566406 46.585938 54.046875 Z M 86.71875 51.792969 C 85.8125 51.792969 85.121094 52.164062 84.667969 52.878906 L 84.300781 53.441406 L 84.300781 51.96875 L 82.742188 51.96875 L 82.742188 60.835938 L 84.300781 60.835938 L 84.300781 58.015625 C 84.300781 55.414062 84.320312 55.109375 84.6875 54.417969 C 85.183594 53.441406 86.046875 52.964844 86.871094 53.203125 L 87.429688 53.355469 L 87.429688 51.816406 Z M 34.234375 54.003906 L 34.234375 48.347656 L 32.675781 48.347656 L 32.675781 60.855469 L 39.265625 60.855469 L 39.265625 59.382812 L 34.253906 59.382812 Z M 70.453125 55.761719 L 69.160156 59.121094 L 67.925781 55.738281 L 66.675781 51.988281 L 65.074219 51.988281 C 66.113281 54.9375 67.234375 57.953125 68.378906 60.855469 C 68.878906 60.878906 69.375 60.855469 69.871094 60.855469 L 71.621094 56.457031 L 73.390625 51.96875 L 71.859375 51.96875 C 71.835938 51.988281 71.167969 53.765625 70.453125 55.761719 Z M 37.863281 44.941406 C 38.121094 44.941406 38.316406 44.855469 38.488281 44.683594 C 38.660156 44.507812 38.746094 44.3125 38.746094 44.054688 C 38.746094 43.792969 38.660156 43.597656 38.488281 43.425781 C 38.316406 43.273438 38.121094 43.1875 37.863281 43.1875 C 37.601562 43.1875 37.386719 43.273438 37.234375 43.445312 C 37.0625 43.621094 36.976562 43.835938 36.976562 44.074219 C 36.976562 44.335938 37.0625 44.554688 37.234375 44.703125 C 37.386719 44.855469 37.601562 44.941406 37.863281 44.941406 Z M 37.300781 43.492188 C 37.449219 43.339844 37.625 43.273438 37.863281 43.273438 C 38.078125 43.273438 38.273438 43.339844 38.421875 43.492188 C 38.574219 43.640625 38.660156 43.816406 38.660156 44.054688 C 38.660156 44.269531 38.574219 44.464844 38.421875 44.617188 C 38.273438 44.769531 38.078125 44.835938 37.863281 44.835938 C 37.644531 44.835938 37.449219 44.769531 37.300781 44.617188 C 37.148438 44.464844 37.0625 44.269531 37.0625 44.054688 C 37.082031 43.835938 37.148438 43.640625 37.300781 43.492188 Z M 37.667969 44.140625 L 37.773438 44.140625 C 37.839844 44.140625 37.925781 44.207031 37.96875 44.335938 L 38.097656 44.617188 L 38.292969 44.617188 L 38.140625 44.3125 C 38.078125 44.183594 38.011719 44.121094 37.949219 44.097656 C 38.035156 44.074219 38.097656 44.054688 38.164062 43.988281 C 38.207031 43.945312 38.230469 43.859375 38.230469 43.792969 C 38.230469 43.707031 38.207031 43.640625 38.140625 43.578125 C 38.078125 43.511719 37.96875 43.492188 37.816406 43.492188 L 37.496094 43.492188 L 37.496094 44.617188 L 37.644531 44.617188 Z M 37.667969 43.621094 L 37.816406 43.621094 C 37.925781 43.621094 37.992188 43.640625 38.035156 43.664062 C 38.078125 43.6875 38.078125 43.730469 38.078125 43.816406 C 38.078125 43.945312 37.992188 44.011719 37.839844 44.011719 L 37.667969 44.011719 Z M 11.8125 44.03125 C 11.8125 43.640625 11.792969 43.339844 11.792969 43.164062 C 11.835938 43.359375 11.878906 43.511719 11.921875 43.621094 L 13.433594 46.980469 L 13.691406 46.980469 L 15.203125 43.578125 C 15.246094 43.492188 15.289062 43.339844 15.332031 43.144531 L 15.355469 43.144531 C 15.332031 43.492188 15.3125 43.773438 15.3125 44.011719 L 15.3125 46.980469 L 15.832031 46.980469 L 15.832031 42.558594 L 15.183594 42.558594 L 13.777344 45.660156 C 13.734375 45.789062 13.648438 45.960938 13.5625 46.199219 L 13.542969 46.199219 C 13.519531 46.070312 13.433594 45.898438 13.347656 45.679688 L 11.984375 42.578125 L 11.292969 42.578125 L 11.292969 47.003906 L 11.792969 47.003906 Z M 16.933594 44.054688 L 17.386719 44.054688 L 17.386719 46.808594 L 16.933594 46.808594 Z M 17.148438 43.035156 C 17.234375 43.035156 17.320312 43.011719 17.386719 42.949219 C 17.449219 42.882812 17.492188 42.820312 17.492188 42.710938 C 17.492188 42.625 17.472656 42.535156 17.386719 42.472656 C 17.320312 42.40625 17.234375 42.386719 17.148438 42.386719 C 17.0625 42.386719 16.976562 42.40625 16.910156 42.472656 C 16.84375 42.535156 16.800781 42.625 16.800781 42.710938 C 16.800781 42.820312 16.824219 42.882812 16.910156 42.949219 C 16.976562 43.011719 17.0625 43.035156 17.148438 43.035156 Z M 20.539062 46.851562 L 20.539062 46.375 C 20.300781 46.546875 20.042969 46.65625 19.761719 46.65625 C 19.4375 46.65625 19.179688 46.546875 18.984375 46.332031 C 18.789062 46.113281 18.679688 45.832031 18.679688 45.464844 C 18.679688 45.074219 18.789062 44.769531 18.984375 44.554688 C 19.179688 44.335938 19.460938 44.226562 19.761719 44.226562 C 20.019531 44.226562 20.28125 44.3125 20.515625 44.464844 L 20.515625 43.925781 C 20.300781 43.816406 20.0625 43.773438 19.78125 43.773438 C 19.285156 43.773438 18.875 43.925781 18.59375 44.25 C 18.3125 44.554688 18.164062 44.988281 18.164062 45.507812 C 18.164062 45.960938 18.292969 46.351562 18.574219 46.632812 C 18.855469 46.9375 19.222656 47.089844 19.652344 47.089844 C 20.019531 47.066406 20.300781 47.003906 20.539062 46.851562 Z M 21.8125 45.398438 C 21.8125 45.03125 21.898438 44.746094 22.050781 44.53125 C 22.203125 44.359375 22.351562 44.25 22.570312 44.25 C 22.742188 44.25 22.871094 44.269531 22.957031 44.359375 L 22.957031 43.835938 C 22.894531 43.816406 22.785156 43.792969 22.65625 43.792969 C 22.484375 43.792969 22.308594 43.859375 22.179688 43.96875 C 22.03125 44.097656 21.898438 44.269531 21.835938 44.507812 L 21.8125 44.507812 L 21.8125 43.859375 L 21.316406 43.859375 L 21.316406 47.023438 L 21.8125 47.023438 Z M 24.707031 47.066406 C 25.183594 47.066406 25.570312 46.914062 25.851562 46.613281 C 26.132812 46.308594 26.285156 45.898438 26.285156 45.398438 C 26.285156 44.878906 26.15625 44.488281 25.894531 44.183594 C 25.636719 43.878906 25.269531 43.75 24.792969 43.75 C 24.320312 43.75 23.929688 43.902344 23.648438 44.164062 C 23.347656 44.464844 23.195312 44.898438 23.195312 45.441406 C 23.195312 45.917969 23.324219 46.308594 23.605469 46.613281 C 23.867188 46.914062 24.234375 47.066406 24.707031 47.066406 Z M 23.996094 44.507812 C 24.1875 44.3125 24.449219 44.207031 24.75 44.207031 C 25.074219 44.207031 25.3125 44.3125 25.507812 44.507812 C 25.679688 44.726562 25.789062 45.03125 25.789062 45.421875 C 25.789062 45.808594 25.703125 46.113281 25.527344 46.308594 C 25.355469 46.527344 25.097656 46.632812 24.773438 46.632812 C 24.449219 46.632812 24.1875 46.527344 23.996094 46.308594 C 23.800781 46.09375 23.714844 45.808594 23.714844 45.421875 C 23.691406 45.03125 23.777344 44.726562 23.996094 44.507812 Z M 28.464844 46.808594 C 28.660156 46.632812 28.769531 46.417969 28.769531 46.15625 C 28.769531 45.917969 28.683594 45.722656 28.53125 45.570312 C 28.402344 45.441406 28.226562 45.332031 27.949219 45.226562 C 27.710938 45.117188 27.558594 45.03125 27.472656 44.964844 C 27.386719 44.878906 27.34375 44.792969 27.34375 44.640625 C 27.34375 44.507812 27.386719 44.402344 27.492188 44.335938 C 27.601562 44.25 27.730469 44.207031 27.90625 44.207031 C 28.183594 44.207031 28.402344 44.269531 28.617188 44.421875 L 28.617188 43.925781 C 28.421875 43.816406 28.183594 43.773438 27.949219 43.773438 C 27.625 43.773438 27.34375 43.859375 27.148438 44.03125 C 26.933594 44.207031 26.847656 44.421875 26.847656 44.683594 C 26.847656 44.921875 26.910156 45.117188 27.039062 45.246094 C 27.148438 45.375 27.34375 45.484375 27.601562 45.59375 C 27.859375 45.703125 28.035156 45.808594 28.121094 45.898438 C 28.207031 45.984375 28.25 46.070312 28.25 46.199219 C 28.25 46.503906 28.054688 46.65625 27.644531 46.65625 C 27.34375 46.65625 27.0625 46.546875 26.824219 46.351562 L 26.824219 46.894531 C 27.039062 47.023438 27.300781 47.089844 27.601562 47.089844 C 27.96875 47.066406 28.273438 46.980469 28.464844 46.808594 Z M 30.863281 43.773438 C 30.386719 43.773438 30 43.925781 29.71875 44.183594 C 29.417969 44.488281 29.265625 44.921875 29.265625 45.464844 C 29.265625 45.941406 29.394531 46.332031 29.675781 46.632812 C 29.957031 46.9375 30.324219 47.089844 30.796875 47.089844 C 31.273438 47.089844 31.664062 46.9375 31.941406 46.632812 C 32.222656 46.332031 32.375 45.917969 32.375 45.421875 C 32.375 44.898438 32.246094 44.507812 31.988281 44.207031 C 31.707031 43.902344 31.339844 43.773438 30.863281 43.773438 Z M 31.855469 45.421875 C 31.855469 45.808594 31.769531 46.113281 31.597656 46.308594 C 31.425781 46.527344 31.164062 46.632812 30.839844 46.632812 C 30.519531 46.632812 30.257812 46.527344 30.0625 46.308594 C 29.871094 46.09375 29.785156 45.808594 29.785156 45.421875 C 29.785156 45.007812 29.890625 44.703125 30.085938 44.488281 C 30.28125 44.292969 30.539062 44.183594 30.839844 44.183594 C 31.144531 44.183594 31.402344 44.292969 31.574219 44.488281 C 31.769531 44.703125 31.855469 45.007812 31.855469 45.421875 Z M 33.21875 47.003906 L 33.714844 47.003906 L 33.714844 44.269531 L 34.449219 44.269531 L 34.449219 43.835938 L 33.714844 43.835938 L 33.714844 43.359375 C 33.714844 42.925781 33.886719 42.6875 34.234375 42.6875 C 34.363281 42.6875 34.46875 42.710938 34.558594 42.773438 L 34.558594 42.320312 C 34.46875 42.277344 34.339844 42.277344 34.191406 42.277344 C 33.910156 42.277344 33.691406 42.363281 33.519531 42.535156 C 33.304688 42.730469 33.195312 42.992188 33.195312 43.359375 L 33.195312 43.878906 L 32.65625 43.878906 L 32.65625 44.3125 L 33.195312 44.3125 Z M 35.292969 46.136719 C 35.292969 46.742188 35.570312 47.066406 36.113281 47.066406 C 36.304688 47.066406 36.457031 47.046875 36.585938 46.960938 L 36.585938 46.527344 C 36.5 46.589844 36.394531 46.632812 36.261719 46.632812 C 36.089844 46.632812 35.980469 46.589844 35.894531 46.503906 C 35.832031 46.417969 35.789062 46.265625 35.789062 46.046875 L 35.789062 44.269531 L 36.585938 44.269531 L 36.585938 43.835938 L 35.789062 43.835938 L 35.789062 42.90625 C 35.613281 42.96875 35.441406 43.011719 35.292969 43.058594 L 35.292969 43.816406 L 34.75 43.816406 L 34.75 44.25 L 35.292969 44.25 Z M 89.394531 51.96875 C 89.222656 51.816406 89.027344 51.730469 88.769531 51.730469 C 88.511719 51.730469 88.292969 51.816406 88.144531 51.988281 C 87.972656 52.164062 87.882812 52.378906 87.882812 52.617188 C 87.882812 52.878906 87.972656 53.074219 88.144531 53.246094 C 88.316406 53.398438 88.53125 53.484375 88.769531 53.484375 C 89.027344 53.484375 89.222656 53.398438 89.394531 53.226562 C 89.570312 53.050781 89.65625 52.855469 89.65625 52.597656 C 89.675781 52.335938 89.570312 52.121094 89.394531 51.96875 Z M 89.332031 53.160156 C 89.179688 53.3125 89.007812 53.375 88.769531 53.375 C 88.554688 53.375 88.359375 53.3125 88.207031 53.160156 C 88.058594 53.007812 87.972656 52.8125 87.972656 52.597656 C 87.972656 52.378906 88.035156 52.183594 88.1875 52.03125 C 88.339844 51.878906 88.511719 51.816406 88.75 51.816406 C 88.964844 51.816406 89.160156 51.878906 89.308594 52.03125 C 89.460938 52.183594 89.546875 52.378906 89.546875 52.597656 C 89.546875 52.8125 89.484375 53.007812 89.332031 53.160156 Z M 88.878906 52.640625 C 88.964844 52.617188 89.027344 52.574219 89.09375 52.53125 C 89.136719 52.488281 89.160156 52.402344 89.160156 52.335938 C 89.160156 52.25 89.136719 52.183594 89.074219 52.121094 C 89.007812 52.054688 88.898438 52.03125 88.75 52.03125 L 88.425781 52.03125 L 88.425781 53.160156 L 88.574219 53.160156 L 88.574219 52.683594 L 88.683594 52.683594 C 88.75 52.683594 88.8125 52.746094 88.878906 52.878906 L 89.007812 53.160156 L 89.203125 53.160156 L 89.050781 52.855469 C 88.984375 52.726562 88.921875 52.660156 88.878906 52.640625 Z M 88.769531 52.53125 L 88.597656 52.53125 L 88.597656 52.164062 L 88.75 52.164062 C 88.855469 52.164062 88.921875 52.183594 88.964844 52.207031 C 89.007812 52.226562 89.007812 52.269531 89.007812 52.359375 C 88.984375 52.488281 88.921875 52.53125 88.769531 52.53125 Z M 60.625 43.707031 L 60.777344 43.707031 L 60.777344 42.578125 L 61.144531 42.578125 L 61.144531 42.429688 L 60.257812 42.429688 L 60.257812 42.578125 L 60.625 42.578125 Z M 61.46875 42.863281 L 61.46875 42.601562 C 61.46875 42.667969 61.492188 42.710938 61.511719 42.730469 L 61.945312 43.707031 L 62.007812 43.707031 L 62.441406 42.730469 C 62.460938 42.710938 62.460938 42.667969 62.484375 42.601562 L 62.484375 43.707031 L 62.636719 43.707031 L 62.636719 42.429688 L 62.460938 42.429688 L 62.074219 43.316406 C 62.074219 43.339844 62.03125 43.402344 62.007812 43.492188 L 61.988281 43.492188 C 61.988281 43.445312 61.964844 43.402344 61.921875 43.339844 L 61.535156 42.449219 L 61.339844 42.449219 L 61.339844 43.730469 L 61.492188 43.730469 Z M 61.46875 42.863281 "/>
</g>
</svg>
