<?xml version="1.0" encoding="UTF-8"?>
<svg xmlns="http://www.w3.org/2000/svg" xmlns:xlink="http://www.w3.org/1999/xlink" width="67px" height="64px" viewBox="0 0 67 64" version="1.1">
<defs>
<linearGradient id="linear0" gradientUnits="userSpaceOnUse" x1="0.49997" y1="-0.19516" x2="0.49997" y2="1.29625" gradientTransform="matrix(11.933594,0,0,21.332031,23.375,4.558594)">
<stop offset="0" style="stop-color:rgb(3.529412%,58.039216%,86.27451%);stop-opacity:1;"/>
<stop offset="0.35001" style="stop-color:rgb(40%,80.784314%,96.078431%);stop-opacity:1;"/>
<stop offset="0.35001" style="stop-color:rgb(40%,80.784314%,96.078431%);stop-opacity:1;"/>
<stop offset="0.84616" style="stop-color:rgb(7.058824%,48.235294%,79.215686%);stop-opacity:1;"/>
<stop offset="0.84616" style="stop-color:rgb(7.058824%,48.235294%,79.215686%);stop-opacity:1;"/>
<stop offset="1" style="stop-color:rgb(7.058824%,48.235294%,79.215686%);stop-opacity:1;"/>
</linearGradient>
<linearGradient id="linear1" gradientUnits="userSpaceOnUse" x1="0.50001" y1="-0.19516" x2="0.50001" y2="1.29624" gradientTransform="matrix(12.527344,0,0,21.875,24.289062,3.859375)">
<stop offset="0" style="stop-color:rgb(5.490196%,46.27451%,73.72549%);stop-opacity:1;"/>
<stop offset="0.36" style="stop-color:rgb(21.176471%,68.235294%,90.980392%);stop-opacity:1;"/>
<stop offset="0.36" style="stop-color:rgb(21.176471%,68.235294%,90.980392%);stop-opacity:1;"/>
<stop offset="0.84616" style="stop-color:rgb(0%,67.843137%,93.72549%);stop-opacity:1;"/>
<stop offset="0.84616" style="stop-color:rgb(0%,67.843137%,93.72549%);stop-opacity:1;"/>
<stop offset="1" style="stop-color:rgb(0%,67.843137%,93.72549%);stop-opacity:1;"/>
</linearGradient>
<linearGradient id="linear2" gradientUnits="userSpaceOnUse" x1="0.49999" y1="1.10922" x2="0.49999" y2="-0.06214" gradientTransform="matrix(11.894531,0,0,22.160156,31.148438,0.574219)">
<stop offset="0" style="stop-color:rgb(10.980392%,38.823529%,71.764706%);stop-opacity:1;"/>
<stop offset="0.5" style="stop-color:rgb(20%,74.117647%,94.901961%);stop-opacity:1;"/>
<stop offset="1" style="stop-color:rgb(20%,74.117647%,94.901961%);stop-opacity:0.419608;"/>
</linearGradient>
<linearGradient id="linear3" gradientUnits="userSpaceOnUse" x1="0.50001" y1="-0.19515" x2="0.50001" y2="1.29627" gradientTransform="matrix(11.777344,0,0,22.710938,29.503906,0.714844)">
<stop offset="0" style="stop-color:rgb(8.627451%,41.568627%,72.156863%);stop-opacity:1;"/>
<stop offset="0.39999" style="stop-color:rgb(21.176471%,68.235294%,90.980392%);stop-opacity:1;"/>
<stop offset="0.39999" style="stop-color:rgb(21.176471%,68.235294%,90.980392%);stop-opacity:1;"/>
<stop offset="0.84616" style="stop-color:rgb(2.745098%,59.607843%,86.666667%);stop-opacity:1;"/>
<stop offset="0.84616" style="stop-color:rgb(2.745098%,59.607843%,86.666667%);stop-opacity:1;"/>
<stop offset="1" style="stop-color:rgb(2.745098%,59.607843%,86.666667%);stop-opacity:1;"/>
</linearGradient>
<linearGradient id="linear4" gradientUnits="userSpaceOnUse" x1="0.49999" y1="-0.19521" x2="0.49999" y2="1.29627" gradientTransform="matrix(15.269531,0,0,24.148438,25.09375,1.175781)">
<stop offset="0" style="stop-color:rgb(7.058824%,26.27451%,47.45098%);stop-opacity:1;"/>
<stop offset="0.39" style="stop-color:rgb(7.843137%,52.941176%,79.607843%);stop-opacity:1;"/>
<stop offset="0.39" style="stop-color:rgb(7.843137%,52.941176%,79.607843%);stop-opacity:1;"/>
<stop offset="0.78023" style="stop-color:rgb(8.627451%,31.764706%,59.215686%);stop-opacity:1;"/>
<stop offset="0.78023" style="stop-color:rgb(8.627451%,31.764706%,59.215686%);stop-opacity:1;"/>
<stop offset="1" style="stop-color:rgb(8.627451%,31.764706%,59.215686%);stop-opacity:1;"/>
</linearGradient>
<linearGradient id="linear5" gradientUnits="userSpaceOnUse" x1="0" y1="0.50001" x2="1" y2="0.50001" gradientTransform="matrix(5.082031,0,0,8.109375,18.292969,3.464844)">
<stop offset="0" style="stop-color:rgb(20%,74.117647%,94.901961%);stop-opacity:0.698039;"/>
<stop offset="1" style="stop-color:rgb(11.372549%,67.45098%,84.705882%);stop-opacity:1;"/>
</linearGradient>
<linearGradient id="linear6" gradientUnits="userSpaceOnUse" x1="0.5001" y1="0.94686" x2="0.5001" y2="-0.03025" gradientTransform="matrix(20.710937,0,0,25.882812,46.101563,0)">
<stop offset="0" style="stop-color:rgb(7.45098%,41.568627%,70.588235%);stop-opacity:1;"/>
<stop offset="0.6" style="stop-color:rgb(34.901961%,79.215686%,96.078431%);stop-opacity:0.54902;"/>
<stop offset="1" style="stop-color:rgb(34.901961%,79.215686%,96.078431%);stop-opacity:0.235294;"/>
</linearGradient>
<linearGradient id="linear7" gradientUnits="userSpaceOnUse" x1="-0.00001" y1="0.5" x2="0.99999" y2="0.5" gradientTransform="matrix(18.851563,0,0,26.007812,0.257812,0.558594)">
<stop offset="0" style="stop-color:rgb(1.960784%,63.137255%,90.196078%);stop-opacity:0.247059;"/>
<stop offset="1" style="stop-color:rgb(1.960784%,63.137255%,90.196078%);stop-opacity:1;"/>
</linearGradient>
<linearGradient id="linear8" gradientUnits="userSpaceOnUse" x1="0.49998" y1="1.24314" x2="0.49998" y2="-0.09421" gradientTransform="matrix(12.839844,0,0,19.359375,4.277344,1.074219)">
<stop offset="0" style="stop-color:rgb(19.215686%,55.686275%,83.529412%);stop-opacity:1;"/>
<stop offset="1" style="stop-color:rgb(21.960784%,65.490196%,89.411765%);stop-opacity:1;"/>
</linearGradient>
<linearGradient id="linear9" gradientUnits="userSpaceOnUse" x1="0.49999" y1="0.912" x2="0.49999" y2="-0.76785" gradientTransform="matrix(11.9375,0,0,14.980469,6.355469,11.570312)">
<stop offset="0" style="stop-color:rgb(1.960784%,63.137255%,90.196078%);stop-opacity:1;"/>
<stop offset="1" style="stop-color:rgb(1.960784%,63.137255%,90.196078%);stop-opacity:0.54902;"/>
</linearGradient>
<linearGradient id="linear10" gradientUnits="userSpaceOnUse" x1="0.5" y1="1.0001" x2="0.5" y2="0.0001" gradientTransform="matrix(13.746094,0,0,21.269531,6.800781,5.246094)">
<stop offset="0" style="stop-color:rgb(9.803922%,34.901961%,65.098039%);stop-opacity:1;"/>
<stop offset="0.5" style="stop-color:rgb(1.960784%,63.137255%,90.196078%);stop-opacity:1;"/>
<stop offset="0.5" style="stop-color:rgb(1.960784%,63.137255%,90.196078%);stop-opacity:1;"/>
<stop offset="0.91759" style="stop-color:rgb(49.411765%,77.254902%,91.764706%);stop-opacity:1;"/>
<stop offset="1" style="stop-color:rgb(49.411765%,77.254902%,91.764706%);stop-opacity:1;"/>
</linearGradient>
<linearGradient id="linear11" gradientUnits="userSpaceOnUse" x1="0.59804" y1="0.94568" x2="0.38471" y2="0.05755" gradientTransform="matrix(19.019531,0,0,25.96875,3.113281,0.601562)">
<stop offset="0" style="stop-color:rgb(8.627451%,31.372549%,58.823529%);stop-opacity:1;"/>
<stop offset="1" style="stop-color:rgb(5.098039%,50.980392%,79.215686%);stop-opacity:1;"/>
</linearGradient>
<linearGradient id="linear12" gradientUnits="userSpaceOnUse" x1="0.49995" y1="0.76998" x2="0.49995" y2="-0.03299" gradientTransform="matrix(8.574219,0,0,15.007812,47.851562,0.5625)">
<stop offset="0" style="stop-color:rgb(1.960784%,63.137255%,90.196078%);stop-opacity:1;"/>
<stop offset="0.87363" style="stop-color:rgb(1.568627%,58.431373%,83.921569%);stop-opacity:1;"/>
<stop offset="1" style="stop-color:rgb(1.568627%,58.431373%,83.921569%);stop-opacity:1;"/>
</linearGradient>
<linearGradient id="linear13" gradientUnits="userSpaceOnUse" x1="0.65263" y1="-0.04161" x2="0.34263" y2="1.05844" gradientTransform="matrix(15.773437,0,0,25.261719,47.496094,0.00390625)">
<stop offset="0" style="stop-color:rgb(21.960784%,65.490196%,89.411765%);stop-opacity:0.329412;"/>
<stop offset="0.96153" style="stop-color:rgb(5.490196%,53.333333%,82.745098%);stop-opacity:1;"/>
<stop offset="0.96153" style="stop-color:rgb(5.490196%,53.333333%,82.745098%);stop-opacity:1;"/>
<stop offset="1" style="stop-color:rgb(5.490196%,53.333333%,82.745098%);stop-opacity:1;"/>
</linearGradient>
<linearGradient id="linear14" gradientUnits="userSpaceOnUse" x1="0.50017" y1="-0.00296" x2="0.50017" y2="1.01882" gradientTransform="matrix(18.390625,0,0,25.730469,44.214844,0.00390625)">
<stop offset="0" style="stop-color:rgb(8.627451%,54.901961%,83.137255%);stop-opacity:1;"/>
<stop offset="0.5" style="stop-color:rgb(10.980392%,52.941176%,80%);stop-opacity:1;"/>
<stop offset="1" style="stop-color:rgb(8.235294%,29.411765%,55.294118%);stop-opacity:1;"/>
</linearGradient>
<linearGradient id="linear15" gradientUnits="userSpaceOnUse" x1="0.16674" y1="2.05565" x2="0.87813" y2="-0.19836" gradientTransform="matrix(8.496094,0,0,-1.113281,18.53125,1.675781)">
<stop offset="0" style="stop-color:rgb(59.215686%,83.921569%,93.333333%);stop-opacity:1;"/>
<stop offset="0.70329" style="stop-color:rgb(33.333333%,75.686275%,91.764706%);stop-opacity:1;"/>
<stop offset="1" style="stop-color:rgb(33.333333%,75.686275%,91.764706%);stop-opacity:1;"/>
</linearGradient>
<linearGradient id="linear16" gradientUnits="userSpaceOnUse" x1="0.0689" y1="0.063" x2="0.75783" y2="1.16771" gradientTransform="matrix(6.929688,0,0,-1.964844,22.964844,2.527344)">
<stop offset="0" style="stop-color:rgb(47.843137%,80%,92.54902%);stop-opacity:1;"/>
<stop offset="1" style="stop-color:rgb(24.705882%,71.764706%,92.941176%);stop-opacity:1;"/>
</linearGradient>
<linearGradient id="linear17" gradientUnits="userSpaceOnUse" x1="0.49997" y1="0.06363" x2="0.49997" y2="1.27961" gradientTransform="matrix(13.621094,0,0,21.148438,43.050781,0.0351562)">
<stop offset="0" style="stop-color:rgb(11.372549%,65.490196%,90.588235%);stop-opacity:1;"/>
<stop offset="1" style="stop-color:rgb(21.568627%,67.058824%,90.588235%);stop-opacity:0;"/>
</linearGradient>
</defs>
<g id="surface1">
<path style=" stroke:none;fill-rule:nonzero;fill:rgb(0%,0%,0%);fill-opacity:1;" d="M 56.078125 33.574219 C 56.078125 33.460938 56.046875 33.378906 55.984375 33.328125 C 55.914062 33.269531 55.792969 33.238281 55.625 33.238281 L 55.378906 33.238281 L 55.378906 33.910156 L 55.671875 33.910156 C 55.945312 33.910156 56.078125 33.796875 56.078125 33.574219 Z M 56.457031 34.96875 L 56.125 34.96875 L 55.910156 34.496094 C 55.800781 34.261719 55.6875 34.144531 55.558594 34.144531 L 55.378906 34.144531 L 55.378906 34.96875 L 55.105469 34.96875 L 55.105469 33.003906 L 55.65625 33.003906 C 55.902344 33.003906 56.085938 33.058594 56.210938 33.167969 C 56.320312 33.265625 56.371094 33.386719 56.371094 33.539062 C 56.371094 33.675781 56.328125 33.789062 56.242188 33.882812 C 56.15625 33.976562 56.03125 34.042969 55.875 34.074219 L 55.875 34.085938 C 55.984375 34.109375 56.09375 34.230469 56.199219 34.445312 Z M 57.066406 34.007812 C 57.066406 33.621094 56.9375 33.292969 56.671875 33.035156 C 56.410156 32.777344 56.089844 32.648438 55.710938 32.648438 C 55.320312 32.648438 54.992188 32.777344 54.734375 33.039062 C 54.476562 33.300781 54.347656 33.625 54.347656 34.007812 C 54.347656 34.398438 54.484375 34.726562 54.75 34.984375 C 55.011719 35.246094 55.332031 35.375 55.710938 35.375 C 56.085938 35.375 56.40625 35.246094 56.671875 34.980469 C 56.9375 34.722656 57.066406 34.394531 57.066406 34.007812 Z M 57.253906 33.996094 C 57.253906 34.429688 57.105469 34.792969 56.804688 35.085938 C 56.507812 35.382812 56.140625 35.527344 55.703125 35.527344 C 55.261719 35.527344 54.894531 35.382812 54.605469 35.101562 C 54.3125 34.8125 54.167969 34.449219 54.167969 34.007812 C 54.167969 33.578125 54.316406 33.21875 54.613281 32.921875 C 54.90625 32.625 55.277344 32.476562 55.714844 32.476562 C 56.148438 32.476562 56.507812 32.617188 56.800781 32.898438 C 57.101562 33.191406 57.253906 33.554688 57.253906 33.996094 Z M 15.390625 39.472656 L 14.441406 39.472656 L 14.441406 34.027344 C 14.441406 33.597656 14.46875 33.074219 14.519531 32.457031 L 14.496094 32.457031 C 14.40625 32.816406 14.328125 33.078125 14.253906 33.238281 L 11.496094 39.472656 L 11.035156 39.472656 L 8.269531 33.285156 C 8.191406 33.113281 8.109375 32.835938 8.027344 32.453125 L 8.007812 32.453125 C 8.035156 32.78125 8.050781 33.308594 8.050781 34.035156 L 8.050781 39.472656 L 7.136719 39.472656 L 7.136719 31.363281 L 8.386719 31.363281 L 10.871094 37.015625 C 11.058594 37.441406 11.179688 37.765625 11.238281 37.988281 L 11.277344 37.988281 C 11.4375 37.542969 11.566406 37.210938 11.664062 36.992188 L 14.199219 31.363281 L 15.386719 31.363281 L 15.386719 39.472656 Z M 18.308594 39.472656 L 17.386719 39.472656 L 17.386719 33.679688 L 18.308594 33.679688 Z M 18.46875 31.605469 C 18.46875 31.777344 18.410156 31.917969 18.289062 32.035156 C 18.171875 32.152344 18.027344 32.210938 17.859375 32.210938 C 17.695312 32.210938 17.550781 32.15625 17.433594 32.042969 C 17.316406 31.929688 17.257812 31.785156 17.257812 31.605469 C 17.257812 31.4375 17.316406 31.296875 17.433594 31.179688 C 17.546875 31.066406 17.699219 31.003906 17.859375 31.007812 C 18.027344 31.007812 18.171875 31.0625 18.289062 31.179688 C 18.410156 31.296875 18.46875 31.4375 18.46875 31.605469 Z M 24.074219 39.203125 C 23.632812 39.476562 23.101562 39.609375 22.492188 39.609375 C 21.664062 39.609375 20.996094 39.335938 20.488281 38.785156 C 19.992188 38.25 19.742188 37.5625 19.742188 36.714844 C 19.742188 35.765625 20.015625 35 20.558594 34.414062 C 21.101562 33.832031 21.832031 33.539062 22.75 33.539062 C 23.253906 33.539062 23.699219 33.636719 24.085938 33.832031 L 24.085938 34.785156 C 23.65625 34.480469 23.199219 34.332031 22.710938 34.332031 C 22.121094 34.332031 21.644531 34.535156 21.273438 34.949219 C 20.886719 35.367188 20.691406 35.929688 20.691406 36.632812 C 20.691406 37.304688 20.871094 37.839844 21.222656 38.230469 C 21.582031 38.625 22.054688 38.820312 22.652344 38.820312 C 23.160156 38.820312 23.632812 38.652344 24.074219 38.320312 Z M 28.488281 34.621094 C 28.324219 34.496094 28.089844 34.433594 27.78125 34.433594 C 27.40625 34.433594 27.089844 34.601562 26.835938 34.941406 C 26.542969 35.320312 26.398438 35.847656 26.398438 36.519531 L 26.398438 39.46875 L 25.476562 39.46875 L 25.476562 33.679688 L 26.398438 33.679688 L 26.398438 34.875 L 26.421875 34.875 C 26.558594 34.453125 26.769531 34.125 27.046875 33.894531 C 27.308594 33.6875 27.605469 33.578125 27.933594 33.578125 C 28.179688 33.578125 28.363281 33.605469 28.488281 33.660156 Z M 33.640625 36.585938 C 33.640625 35.84375 33.476562 35.277344 33.140625 34.890625 C 32.816406 34.515625 32.363281 34.332031 31.78125 34.332031 C 31.207031 34.332031 30.746094 34.519531 30.398438 34.898438 C 30.035156 35.300781 29.851562 35.871094 29.851562 36.609375 C 29.851562 37.300781 30.027344 37.84375 30.375 38.234375 C 30.722656 38.625 31.191406 38.820312 31.78125 38.820312 C 32.390625 38.820312 32.855469 38.621094 33.171875 38.226562 C 33.484375 37.839844 33.640625 37.292969 33.640625 36.585938 M 34.589844 36.554688 C 34.589844 37.476562 34.332031 38.21875 33.8125 38.773438 C 33.292969 39.332031 32.59375 39.609375 31.710938 39.609375 C 30.84375 39.609375 30.15625 39.332031 29.648438 38.773438 C 29.152344 38.234375 28.902344 37.527344 28.902344 36.644531 C 28.902344 35.636719 29.183594 34.859375 29.75 34.308594 C 30.273438 33.796875 30.972656 33.539062 31.847656 33.539062 C 32.707031 33.539062 33.382812 33.808594 33.867188 34.339844 C 34.347656 34.878906 34.589844 35.613281 34.589844 36.554688 M 39.175781 37.921875 C 39.175781 38.394531 39 38.789062 38.644531 39.101562 C 38.257812 39.441406 37.730469 39.609375 37.0625 39.609375 C 36.515625 39.609375 36.035156 39.496094 35.628906 39.261719 L 35.628906 38.265625 C 36.082031 38.632812 36.582031 38.820312 37.128906 38.820312 C 37.859375 38.820312 38.226562 38.550781 38.226562 38.011719 C 38.226562 37.785156 38.148438 37.597656 37.984375 37.453125 C 37.824219 37.304688 37.507812 37.125 37.039062 36.917969 C 36.554688 36.707031 36.207031 36.488281 36.003906 36.261719 C 35.761719 35.996094 35.636719 35.648438 35.636719 35.21875 C 35.636719 34.738281 35.828125 34.335938 36.207031 34.019531 C 36.589844 33.699219 37.078125 33.539062 37.675781 33.539062 C 38.136719 33.539062 38.546875 33.628906 38.910156 33.808594 L 38.910156 34.742188 C 38.53125 34.46875 38.09375 34.332031 37.601562 34.332031 C 37.292969 34.332031 37.046875 34.40625 36.863281 34.554688 C 36.679688 34.707031 36.585938 34.902344 36.585938 35.140625 C 36.585938 35.394531 36.664062 35.59375 36.820312 35.738281 C 36.957031 35.871094 37.246094 36.03125 37.6875 36.21875 C 38.179688 36.425781 38.535156 36.640625 38.753906 36.859375 C 39.035156 37.136719 39.175781 37.492188 39.175781 37.921875 M 44.828125 36.585938 C 44.828125 35.84375 44.660156 35.277344 44.328125 34.890625 C 44.003906 34.515625 43.550781 34.332031 42.96875 34.332031 C 42.390625 34.332031 41.929688 34.519531 41.585938 34.898438 C 41.21875 35.300781 41.039062 35.871094 41.039062 36.609375 C 41.039062 37.300781 41.210938 37.84375 41.558594 38.234375 C 41.910156 38.625 42.378906 38.820312 42.96875 38.820312 C 43.578125 38.820312 44.039062 38.621094 44.359375 38.226562 C 44.671875 37.839844 44.828125 37.292969 44.828125 36.585938 M 45.777344 36.554688 C 45.777344 37.476562 45.515625 38.21875 44.996094 38.773438 C 44.480469 39.332031 43.78125 39.609375 42.898438 39.609375 C 42.03125 39.609375 41.339844 39.332031 40.835938 38.773438 C 40.339844 38.234375 40.089844 37.527344 40.089844 36.644531 C 40.089844 35.636719 40.375 34.859375 40.933594 34.308594 C 41.457031 33.796875 42.15625 33.539062 43.035156 33.539062 C 43.894531 33.539062 44.566406 33.808594 45.050781 34.339844 C 45.535156 34.878906 45.777344 35.613281 45.777344 36.554688 M 49.855469 31.714844 C 49.671875 31.613281 49.46875 31.5625 49.238281 31.5625 C 48.59375 31.5625 48.269531 31.96875 48.269531 32.789062 L 48.269531 33.679688 L 49.625 33.679688 L 49.625 34.464844 L 48.269531 34.464844 L 48.269531 39.46875 L 47.34375 39.46875 L 47.34375 34.464844 L 46.363281 34.464844 L 46.363281 33.679688 L 47.34375 33.679688 L 47.34375 32.742188 C 47.34375 32.105469 47.539062 31.605469 47.9375 31.246094 C 48.273438 30.929688 48.691406 30.777344 49.183594 30.777344 C 49.46875 30.777344 49.691406 30.808594 49.855469 30.875 Z M 53.503906 39.414062 C 53.285156 39.539062 52.996094 39.601562 52.636719 39.601562 C 51.625 39.601562 51.121094 39.03125 51.121094 37.890625 L 51.121094 34.464844 L 50.132812 34.464844 L 50.132812 33.679688 L 51.121094 33.679688 L 51.121094 32.269531 C 51.417969 32.175781 51.726562 32.074219 52.050781 31.96875 L 52.050781 33.679688 L 53.503906 33.679688 L 53.503906 34.464844 L 52.050781 34.464844 L 52.050781 37.734375 C 52.050781 38.121094 52.113281 38.398438 52.246094 38.5625 C 52.378906 38.726562 52.597656 38.808594 52.90625 38.808594 C 53.136719 38.808594 53.335938 38.746094 53.503906 38.621094 Z M 53.503906 39.414062 "/>
<path style=" stroke:none;fill-rule:nonzero;fill:rgb(0%,0%,0%);fill-opacity:1;" d="M 3.511719 62.066406 C 3.511719 62.523438 3.347656 62.914062 3.023438 63.246094 C 2.699219 63.574219 2.300781 63.742188 1.839844 63.742188 C 1.386719 63.742188 1 63.574219 0.683594 63.246094 C 0.371094 62.914062 0.210938 62.523438 0.210938 62.066406 C 0.210938 61.601562 0.371094 61.207031 0.683594 60.882812 C 1 60.554688 1.386719 60.394531 1.839844 60.394531 C 2.300781 60.394531 2.699219 60.558594 3.023438 60.886719 C 3.347656 61.21875 3.511719 61.613281 3.511719 62.066406 M 24.21875 63.402344 L 21.199219 63.402344 L 10.253906 46.457031 C 9.988281 46.035156 9.765625 45.589844 9.589844 45.121094 L 9.5 45.121094 C 9.578125 45.578125 9.617188 46.550781 9.617188 48.042969 L 9.617188 63.402344 L 7.128906 63.402344 L 7.128906 42.144531 L 10.355469 42.144531 L 20.976562 58.820312 C 21.402344 59.480469 21.691406 59.957031 21.835938 60.242188 L 21.894531 60.242188 C 21.796875 59.628906 21.746094 58.585938 21.746094 57.117188 L 21.746094 42.144531 L 24.21875 42.144531 Z M 40.15625 63.402344 L 28.914062 63.402344 L 28.914062 42.144531 L 39.667969 42.144531 L 39.667969 44.394531 L 31.398438 44.394531 L 31.398438 51.46875 L 39.0625 51.46875 L 39.0625 53.722656 L 31.398438 53.722656 L 31.398438 61.148438 L 40.15625 61.148438 Z M 57.210938 44.394531 L 51.101562 44.394531 L 51.101562 63.402344 L 48.613281 63.402344 L 48.613281 44.394531 L 42.492188 44.394531 L 42.492188 42.140625 L 57.210938 42.140625 Z M 57.210938 44.394531 "/>
<path style=" stroke:none;fill-rule:nonzero;fill:url(#linear0);" d="M 23.375 5.425781 C 25.773438 12.777344 26.679688 25.890625 33.695312 25.890625 C 34.230469 25.890625 34.769531 25.835938 35.308594 25.734375 C 28.933594 24.242188 28.179688 11.273438 24.289062 4.558594 C 23.976562 4.839844 23.671875 5.128906 23.375 5.425781 "/>
<path style=" stroke:none;fill-rule:nonzero;fill:url(#linear1);" d="M 24.289062 4.558594 C 28.179688 11.273438 28.933594 24.242188 35.308594 25.734375 C 35.8125 25.640625 36.3125 25.503906 36.816406 25.324219 C 31.09375 22.515625 29.511719 9.921875 25.09375 3.859375 C 24.820312 4.085938 24.550781 4.320312 24.289062 4.558594 "/>
<path style=" stroke:none;fill-rule:nonzero;fill:rgb(7.843138%,33.333334%,60.392159%);fill-opacity:1;" d="M 29.894531 0.5625 C 29.359375 0.5625 28.820312 0.613281 28.277344 0.71875 C 26.859375 0.988281 25.417969 1.597656 23.964844 2.527344 C 24.359375 2.917969 24.738281 3.367188 25.09375 3.859375 C 26.570312 2.628906 28.039062 1.71875 29.503906 1.175781 C 30.039062 0.972656 30.585938 0.820312 31.148438 0.714844 C 30.738281 0.613281 30.316406 0.5625 29.894531 0.5625 "/>
<path style=" stroke:none;fill-rule:nonzero;fill:url(#linear2);" d="M 41.285156 22.734375 C 41.894531 22.246094 42.480469 21.730469 43.042969 21.191406 C 40.605469 13.875 39.734375 0.574219 32.671875 0.574219 C 32.164062 0.574219 31.65625 0.621094 31.148438 0.714844 C 37.582031 2.320312 38.40625 16.347656 41.285156 22.734375 "/>
<path style=" stroke:none;fill-rule:nonzero;fill:rgb(18.82353%,57.254905%,76.862746%);fill-opacity:1;" d="M 31.148438 0.714844 C 30.738281 0.613281 30.316406 0.5625 29.894531 0.5625 L 32.671875 0.574219 C 32.167969 0.574219 31.65625 0.621094 31.148438 0.714844 "/>
<path style=" stroke:none;fill-rule:nonzero;fill:rgb(9.803922%,41.176471%,73.725492%);fill-opacity:1;" d="M 41.160156 24.289062 C 40.882812 24.027344 40.621094 23.738281 40.363281 23.425781 C 39.175781 24.269531 37.992188 24.910156 36.816406 25.324219 C 37.234375 25.53125 37.679688 25.683594 38.140625 25.777344 C 38.511719 25.851562 38.886719 25.890625 39.265625 25.890625 C 40.585938 25.890625 41.628906 25.734375 42.519531 25.304688 C 42.027344 25.039062 41.578125 24.699219 41.160156 24.289062 "/>
<path style=" stroke:none;fill-rule:nonzero;fill:url(#linear3);" d="M 29.503906 1.175781 C 35.265625 4.195312 35.765625 17.875 40.363281 23.425781 C 40.675781 23.207031 40.984375 22.976562 41.28125 22.734375 C 38.40625 16.347656 37.582031 2.316406 31.148438 0.714844 C 30.589844 0.820312 30.039062 0.976562 29.503906 1.175781 "/>
<path style=" stroke:none;fill-rule:nonzero;fill:url(#linear4);" d="M 25.09375 3.859375 C 29.511719 9.921875 31.09375 22.515625 36.816406 25.324219 C 37.992188 24.910156 39.175781 24.269531 40.363281 23.425781 C 35.765625 17.875 35.265625 4.195312 29.503906 1.175781 C 28.039062 1.71875 26.570312 2.628906 25.09375 3.859375 "/>
<path style=" stroke:none;fill-rule:nonzero;fill:url(#linear5);" d="M 20.546875 5.25 C 19.855469 6.816406 19.148438 8.882812 18.292969 11.574219 C 19.992188 9.171875 21.6875 7.101562 23.375 5.425781 C 23.140625 4.710938 22.890625 4.050781 22.625 3.464844 C 21.898438 4.019531 21.207031 4.617188 20.546875 5.25 "/>
<path style=" stroke:none;fill-rule:nonzero;fill:rgb(16.862746%,45.490196%,69.411767%);fill-opacity:1;" d="M 23.238281 3.011719 C 23.03125 3.160156 22.828125 3.308594 22.625 3.464844 C 22.894531 4.050781 23.140625 4.710938 23.375 5.425781 C 23.671875 5.132812 23.976562 4.839844 24.289062 4.558594 C 23.960938 3.996094 23.613281 3.476562 23.238281 3.011719 "/>
<path style=" stroke:none;fill-rule:nonzero;fill:rgb(7.058824%,35.294119%,61.960787%);fill-opacity:1;" d="M 23.964844 2.527344 C 23.71875 2.683594 23.476562 2.84375 23.238281 3.011719 C 23.613281 3.476562 23.960938 3.996094 24.289062 4.558594 C 24.550781 4.320312 24.820312 4.085938 25.09375 3.859375 C 24.738281 3.367188 24.359375 2.917969 23.964844 2.527344 "/>
<path style=" stroke:none;fill-rule:nonzero;fill:url(#linear6);" d="M 63.269531 0.00390625 C 60.011719 12.597656 53.203125 22.714844 47.496094 25.265625 L 47.484375 25.265625 C 47.382812 25.3125 47.277344 25.355469 47.175781 25.398438 C 47.164062 25.40625 47.148438 25.40625 47.140625 25.414062 C 47.109375 25.425781 47.082031 25.433594 47.050781 25.445312 C 47.039062 25.453125 47.023438 25.457031 47.011719 25.460938 C 46.964844 25.480469 46.917969 25.492188 46.871094 25.511719 C 46.847656 25.523438 46.832031 25.527344 46.8125 25.535156 C 46.789062 25.542969 46.765625 25.550781 46.742188 25.558594 C 46.71875 25.566406 46.695312 25.570312 46.671875 25.582031 C 46.652344 25.589844 46.628906 25.59375 46.609375 25.601562 C 46.570312 25.613281 46.53125 25.625 46.488281 25.636719 C 46.472656 25.636719 46.457031 25.648438 46.4375 25.652344 C 46.410156 25.660156 46.382812 25.667969 46.355469 25.675781 C 46.335938 25.683594 46.320312 25.6875 46.300781 25.691406 C 46.269531 25.699219 46.238281 25.707031 46.210938 25.714844 L 46.101562 25.738281 C 46.363281 25.832031 46.636719 25.882812 46.917969 25.882812 C 52.328125 25.882812 57.785156 16.164062 66.8125 0 L 63.269531 0 Z M 63.269531 0.00390625 "/>
<path style=" stroke:none;fill-rule:nonzero;fill:url(#linear7);" d="M 17.117188 1.074219 C 17.121094 1.074219 17.125 1.066406 17.125 1.066406 C 17.128906 1.066406 17.136719 1.066406 17.140625 1.058594 L 17.144531 1.058594 C 17.175781 1.046875 17.203125 1.035156 17.234375 1.023438 C 17.242188 1.023438 17.246094 1.023438 17.25 1.015625 C 17.257812 1.015625 17.265625 1.007812 17.273438 1.003906 C 17.304688 0.996094 17.335938 0.984375 17.367188 0.972656 L 17.371094 0.972656 C 17.445312 0.949219 17.511719 0.921875 17.582031 0.898438 C 17.589844 0.898438 17.601562 0.890625 17.613281 0.890625 C 17.640625 0.882812 17.671875 0.871094 17.699219 0.863281 C 17.714844 0.855469 17.726562 0.855469 17.742188 0.851562 C 17.773438 0.839844 17.800781 0.832031 17.832031 0.824219 C 17.84375 0.824219 17.855469 0.816406 17.863281 0.816406 C 17.964844 0.789062 18.0625 0.761719 18.164062 0.738281 C 18.175781 0.738281 18.1875 0.730469 18.203125 0.726562 C 18.230469 0.71875 18.257812 0.714844 18.289062 0.710938 C 18.304688 0.703125 18.316406 0.703125 18.332031 0.699219 C 18.363281 0.691406 18.390625 0.6875 18.421875 0.683594 L 18.441406 0.683594 C 18.5 0.667969 18.5625 0.660156 18.621094 0.648438 L 18.660156 0.648438 C 18.6875 0.640625 18.714844 0.640625 18.742188 0.632812 C 18.757812 0.632812 18.773438 0.625 18.789062 0.625 C 18.816406 0.625 18.84375 0.617188 18.867188 0.613281 C 18.882812 0.613281 18.898438 0.613281 18.914062 0.605469 C 18.976562 0.597656 19.042969 0.59375 19.109375 0.585938 C 18.917969 0.566406 18.722656 0.558594 18.53125 0.558594 C 12.4375 0.558594 4.039062 11.890625 0.257812 26.566406 L 0.988281 26.566406 C 2.199219 24.402344 3.285156 22.355469 4.28125 20.433594 C 6.929688 10.039062 12.324219 2.949219 17.117188 1.070312 "/>
<path style=" stroke:none;fill-rule:nonzero;fill:rgb(5.098039%,50.980395%,79.215688%);fill-opacity:1;" d="M 20.546875 5.25 C 21.207031 4.617188 21.898438 4.019531 22.625 3.464844 C 22.476562 3.136719 22.3125 2.816406 22.128906 2.503906 C 21.570312 3.183594 21.0625 4.078125 20.546875 5.25 "/>
<path style=" stroke:none;fill-rule:nonzero;fill:rgb(5.098039%,50.980395%,79.215688%);fill-opacity:1;" d="M 21.046875 1.160156 C 21.445312 1.496094 21.800781 1.953125 22.128906 2.507812 C 22.230469 2.378906 22.335938 2.261719 22.445312 2.152344 C 21.992188 1.730469 21.5 1.382812 20.972656 1.121094 C 20.992188 1.132812 21.011719 1.140625 21.035156 1.152344 C 21.035156 1.152344 21.042969 1.160156 21.046875 1.160156 "/>
<path style=" stroke:none;fill-rule:nonzero;fill:url(#linear8);" d="M 4.277344 20.433594 C 9.835938 9.703125 12.46875 2.910156 17.117188 1.074219 C 12.324219 2.953125 6.929688 10.042969 4.28125 20.433594 "/>
<path style=" stroke:none;fill-rule:nonzero;fill:rgb(7.058824%,48.235294%,79.215688%);fill-opacity:1;" d="M 22.441406 2.152344 C 22.335938 2.261719 22.234375 2.378906 22.128906 2.503906 C 22.3125 2.816406 22.476562 3.136719 22.625 3.464844 C 22.824219 3.308594 23.03125 3.160156 23.238281 3.011719 C 22.992188 2.707031 22.726562 2.417969 22.441406 2.152344 "/>
<path style=" stroke:none;fill-rule:nonzero;fill:url(#linear9);" d="M 6.800781 26.519531 C 6.769531 26.527344 6.734375 26.527344 6.703125 26.53125 L 6.683594 26.53125 C 6.652344 26.53125 6.625 26.539062 6.597656 26.539062 L 6.582031 26.539062 C 6.511719 26.546875 6.445312 26.546875 6.378906 26.550781 L 6.355469 26.550781 C 11.980469 26.394531 14.550781 23.574219 15.828125 19.480469 C 16.796875 16.375 17.59375 13.761719 18.292969 11.570312 C 15.9375 14.890625 13.570312 18.851562 11.191406 23.289062 C 10.042969 25.429688 8.296875 26.324219 6.800781 26.515625 "/>
<path style=" stroke:none;fill-rule:nonzero;fill:url(#linear10);" d="M 6.800781 26.515625 C 8.296875 26.324219 10.042969 25.433594 11.191406 23.292969 C 13.570312 18.855469 15.9375 14.894531 18.289062 11.570312 C 19.148438 8.878906 19.855469 6.816406 20.546875 5.246094 C 15.855469 9.722656 11.144531 17.164062 6.800781 26.511719 "/>
<path style=" stroke:none;fill-rule:nonzero;fill:rgb(1.960784%,63.137257%,90.196079%);fill-opacity:1;" d="M 4.277344 20.433594 C 3.285156 22.355469 2.195312 24.402344 0.988281 26.566406 L 3.105469 26.566406 C 3.375 24.5 3.765625 22.453125 4.277344 20.4375 "/>
<path style=" stroke:none;fill-rule:nonzero;fill:url(#linear11);" d="M 18.914062 0.609375 C 18.894531 0.609375 18.882812 0.617188 18.867188 0.617188 C 18.84375 0.628906 18.816406 0.628906 18.789062 0.628906 C 18.773438 0.628906 18.757812 0.628906 18.742188 0.636719 C 18.710938 0.648438 18.6875 0.648438 18.65625 0.652344 C 18.644531 0.652344 18.632812 0.652344 18.621094 0.660156 C 18.5625 0.671875 18.5 0.683594 18.441406 0.691406 L 18.421875 0.691406 C 18.390625 0.703125 18.363281 0.707031 18.332031 0.710938 C 18.316406 0.71875 18.304688 0.71875 18.289062 0.722656 C 18.261719 0.730469 18.230469 0.734375 18.203125 0.738281 C 18.1875 0.746094 18.175781 0.746094 18.164062 0.75 C 18.0625 0.773438 17.964844 0.796875 17.863281 0.824219 C 17.855469 0.824219 17.84375 0.835938 17.832031 0.835938 C 17.800781 0.84375 17.773438 0.851562 17.742188 0.863281 C 17.726562 0.871094 17.710938 0.871094 17.699219 0.875 C 17.671875 0.882812 17.640625 0.890625 17.609375 0.902344 C 17.597656 0.902344 17.589844 0.910156 17.578125 0.910156 C 17.511719 0.933594 17.441406 0.960938 17.371094 0.984375 C 17.34375 0.992188 17.308594 1.003906 17.277344 1.015625 C 17.265625 1.023438 17.253906 1.027344 17.238281 1.03125 C 17.207031 1.042969 17.179688 1.054688 17.152344 1.0625 C 17.140625 1.074219 17.128906 1.074219 17.121094 1.078125 C 12.476562 2.917969 9.839844 9.707031 4.285156 20.441406 C 3.769531 22.457031 3.378906 24.503906 3.113281 26.570312 L 3.410156 26.570312 C 4.25 26.570312 4.484375 26.5625 5.449219 26.5625 L 6.382812 26.5625 C 6.449219 26.554688 6.519531 26.554688 6.585938 26.546875 L 6.601562 26.546875 C 6.628906 26.546875 6.660156 26.539062 6.6875 26.539062 L 6.707031 26.539062 C 6.738281 26.539062 6.773438 26.53125 6.808594 26.527344 C 11.152344 17.175781 15.859375 9.734375 20.554688 5.261719 C 21.070312 4.089844 21.578125 3.195312 22.132812 2.515625 C 21.808594 1.964844 21.453125 1.503906 21.054688 1.171875 C 21.054688 1.171875 21.042969 1.171875 21.042969 1.160156 C 21.019531 1.152344 20.996094 1.140625 20.976562 1.128906 C 20.953125 1.117188 20.933594 1.109375 20.910156 1.097656 C 20.886719 1.085938 20.867188 1.078125 20.847656 1.066406 C 20.816406 1.058594 20.796875 1.046875 20.769531 1.035156 C 20.75 1.027344 20.734375 1.015625 20.710938 1.007812 C 20.671875 0.992188 20.628906 0.976562 20.589844 0.957031 C 20.570312 0.949219 20.554688 0.945312 20.535156 0.9375 C 20.503906 0.925781 20.476562 0.914062 20.445312 0.898438 C 20.429688 0.890625 20.414062 0.890625 20.394531 0.882812 C 20.351562 0.871094 20.308594 0.855469 20.269531 0.839844 L 20.257812 0.839844 C 20.207031 0.824219 20.160156 0.8125 20.109375 0.796875 C 20.097656 0.789062 20.089844 0.789062 20.078125 0.789062 C 20.03125 0.777344 19.992188 0.765625 19.953125 0.753906 C 19.941406 0.753906 19.933594 0.742188 19.921875 0.742188 C 19.820312 0.71875 19.71875 0.695312 19.613281 0.675781 C 19.605469 0.675781 19.59375 0.667969 19.582031 0.667969 C 19.539062 0.660156 19.492188 0.652344 19.449219 0.644531 C 19.4375 0.636719 19.429688 0.636719 19.421875 0.636719 C 19.367188 0.628906 19.316406 0.621094 19.261719 0.617188 L 19.234375 0.617188 C 19.191406 0.609375 19.152344 0.609375 19.113281 0.601562 C 19.046875 0.613281 18.980469 0.617188 18.917969 0.621094 "/>
<path style=" stroke:none;fill-rule:nonzero;fill:url(#linear12);" d="M 50.539062 6.976562 C 49.46875 10.410156 48.605469 13.238281 47.851562 15.570312 C 50.785156 11.523438 53.675781 6.433594 56.425781 0.5625 C 53.214844 1.570312 51.503906 3.882812 50.539062 6.976562 "/>
<path style=" stroke:none;fill-rule:nonzero;fill:url(#linear13);" d="M 47.945312 25.050781 C 47.792969 25.128906 47.644531 25.199219 47.496094 25.265625 C 53.203125 22.714844 60.011719 12.597656 63.269531 0.00390625 L 62.609375 0.00390625 C 55.121094 13.40625 52.714844 22.378906 47.945312 25.050781 "/>
<path style=" stroke:none;fill-rule:nonzero;fill:rgb(2.745098%,60.392159%,88.235295%);fill-opacity:1;" d="M 44.21875 23.925781 C 45.457031 22.40625 46.46875 19.824219 47.851562 15.570312 C 46.257812 17.761719 44.65625 19.648438 43.050781 21.183594 C 43.050781 21.191406 43.050781 21.191406 43.042969 21.199219 C 43.390625 22.25 43.777344 23.175781 44.214844 23.925781 "/>
<path style=" stroke:none;fill-rule:nonzero;fill:rgb(9.803922%,41.176471%,73.725492%);fill-opacity:1;" d="M 44.21875 23.925781 C 43.792969 24.441406 43.347656 24.835938 42.847656 25.128906 C 42.738281 25.191406 42.628906 25.25 42.515625 25.304688 C 43.058594 25.597656 43.648438 25.785156 44.257812 25.855469 C 44.351562 25.867188 44.445312 25.875 44.542969 25.882812 L 44.558594 25.882812 C 44.605469 25.882812 44.648438 25.882812 44.699219 25.890625 L 45.160156 25.890625 C 45.179688 25.890625 45.195312 25.890625 45.214844 25.882812 C 45.246094 25.882812 45.28125 25.882812 45.316406 25.871094 L 45.367188 25.871094 C 45.402344 25.871094 45.441406 25.863281 45.480469 25.859375 L 45.488281 25.859375 C 45.5 25.859375 45.511719 25.851562 45.519531 25.851562 C 45.558594 25.84375 45.601562 25.839844 45.640625 25.832031 L 45.675781 25.832031 C 45.71875 25.824219 45.765625 25.820312 45.808594 25.8125 L 45.832031 25.8125 C 45.921875 25.792969 46.007812 25.777344 46.097656 25.753906 C 45.359375 25.484375 44.742188 24.847656 44.214844 23.941406 "/>
<path style=" stroke:none;fill-rule:nonzero;fill:rgb(11.764706%,36.078432%,70.19608%);fill-opacity:1;" d="M 33.695312 25.890625 C 34.230469 25.890625 34.769531 25.835938 35.3125 25.734375 C 35.8125 25.640625 36.3125 25.503906 36.816406 25.328125 C 37.234375 25.53125 37.679688 25.683594 38.136719 25.777344 C 38.507812 25.851562 38.886719 25.890625 39.265625 25.890625 Z M 33.695312 25.890625 "/>
<path style=" stroke:none;fill-rule:nonzero;fill:rgb(11.764706%,36.078432%,70.19608%);fill-opacity:1;" d="M 39.265625 25.890625 C 40.585938 25.890625 41.628906 25.734375 42.515625 25.304688 C 43.058594 25.597656 43.648438 25.785156 44.257812 25.855469 C 44.351562 25.867188 44.445312 25.875 44.542969 25.882812 L 44.558594 25.882812 C 44.605469 25.882812 44.648438 25.882812 44.699219 25.890625 L 44.859375 25.890625 L 39.261719 25.890625 Z M 39.265625 25.890625 "/>
<path style=" stroke:none;fill-rule:nonzero;fill:rgb(11.372549%,37.64706%,70.980394%);fill-opacity:1;" d="M 44.859375 25.890625 L 45.164062 25.890625 C 45.183594 25.890625 45.199219 25.890625 45.21875 25.882812 C 45.25 25.882812 45.285156 25.882812 45.320312 25.871094 L 45.371094 25.871094 C 45.40625 25.871094 45.445312 25.863281 45.484375 25.859375 L 45.492188 25.859375 C 45.503906 25.859375 45.515625 25.851562 45.527344 25.851562 C 45.566406 25.84375 45.605469 25.839844 45.644531 25.832031 C 45.65625 25.832031 45.667969 25.832031 45.679688 25.824219 C 45.726562 25.816406 45.769531 25.8125 45.816406 25.804688 L 45.835938 25.804688 C 45.925781 25.785156 46.015625 25.769531 46.101562 25.746094 C 46.363281 25.84375 46.640625 25.894531 46.917969 25.890625 L 44.863281 25.898438 Z M 44.859375 25.890625 "/>
<path style=" stroke:none;fill-rule:nonzero;fill:rgb(9.019608%,37.254903%,67.058825%);fill-opacity:1;" d="M 43.046875 21.199219 L 43.046875 21.1875 C 42.480469 21.730469 41.894531 22.246094 41.285156 22.734375 C 40.984375 22.972656 40.679688 23.203125 40.367188 23.425781 C 40.625 23.734375 40.886719 24.023438 41.164062 24.289062 C 41.582031 24.695312 42.03125 25.039062 42.519531 25.304688 C 42.632812 25.25 42.742188 25.191406 42.851562 25.125 C 43.347656 24.835938 43.796875 24.441406 44.21875 23.925781 C 43.78125 23.175781 43.398438 22.246094 43.046875 21.195312 "/>
<path style=" stroke:none;fill-rule:nonzero;fill:url(#linear14);" d="M 60.519531 0.00390625 L 57.195312 0.00390625 C 57.015625 0.0117188 56.839844 0.015625 56.667969 0.0273438 C 56.585938 0.203125 56.503906 0.378906 56.421875 0.554688 C 53.671875 6.429688 50.78125 11.515625 47.847656 15.5625 C 46.46875 19.816406 45.453125 22.398438 44.214844 23.917969 C 44.742188 24.828125 45.363281 25.464844 46.09375 25.734375 C 46.117188 25.726562 46.132812 25.726562 46.152344 25.722656 L 46.164062 25.722656 C 46.179688 25.722656 46.191406 25.714844 46.207031 25.714844 C 46.234375 25.703125 46.269531 25.699219 46.296875 25.691406 C 46.316406 25.683594 46.332031 25.679688 46.351562 25.675781 C 46.378906 25.667969 46.410156 25.660156 46.433594 25.652344 C 46.453125 25.644531 46.46875 25.640625 46.484375 25.636719 C 46.527344 25.625 46.566406 25.613281 46.609375 25.601562 C 46.628906 25.59375 46.648438 25.585938 46.667969 25.582031 C 46.691406 25.574219 46.714844 25.566406 46.738281 25.554688 C 46.761719 25.546875 46.789062 25.542969 46.808594 25.535156 C 46.828125 25.523438 46.847656 25.519531 46.867188 25.511719 C 46.914062 25.496094 46.960938 25.480469 47.007812 25.460938 C 47.023438 25.460938 47.035156 25.449219 47.050781 25.445312 C 47.078125 25.433594 47.109375 25.425781 47.136719 25.414062 C 47.148438 25.402344 47.160156 25.402344 47.175781 25.398438 C 47.273438 25.355469 47.378906 25.3125 47.484375 25.265625 L 47.492188 25.265625 C 47.644531 25.199219 47.792969 25.128906 47.941406 25.050781 C 52.710938 22.382812 55.117188 13.410156 62.605469 0.00390625 L 60.515625 0.00390625 Z M 60.519531 0.00390625 "/>
<path style=" stroke:none;fill-rule:nonzero;fill:rgb(49.019608%,79.607844%,92.54902%);fill-opacity:1;" d="M 19.109375 0.59375 C 19.121094 0.59375 19.128906 0.59375 19.140625 0.601562 C 19.171875 0.601562 19.199219 0.601562 19.230469 0.609375 L 19.257812 0.609375 C 19.308594 0.617188 19.363281 0.621094 19.417969 0.628906 C 19.425781 0.628906 19.433594 0.628906 19.441406 0.640625 C 19.488281 0.648438 19.53125 0.65625 19.578125 0.660156 C 19.585938 0.660156 19.597656 0.667969 19.609375 0.667969 C 19.710938 0.691406 19.816406 0.710938 19.917969 0.738281 C 19.925781 0.738281 19.9375 0.746094 19.945312 0.746094 C 19.988281 0.757812 20.027344 0.769531 20.070312 0.78125 C 20.082031 0.78125 20.09375 0.789062 20.105469 0.792969 C 20.15625 0.804688 20.203125 0.816406 20.25 0.835938 C 20.253906 0.835938 20.257812 0.835938 20.261719 0.84375 C 20.304688 0.855469 20.347656 0.871094 20.390625 0.886719 C 20.40625 0.894531 20.421875 0.898438 20.4375 0.902344 C 20.46875 0.917969 20.503906 0.929688 20.53125 0.941406 C 20.546875 0.941406 20.566406 0.953125 20.582031 0.960938 C 20.625 0.976562 20.664062 0.992188 20.707031 1.011719 C 20.726562 1.019531 20.746094 1.027344 20.765625 1.035156 C 20.789062 1.046875 20.8125 1.058594 20.839844 1.066406 C 20.859375 1.078125 20.882812 1.089844 20.90625 1.097656 C 20.925781 1.109375 20.949219 1.121094 20.96875 1.132812 C 21.5 1.394531 21.992188 1.742188 22.441406 2.164062 C 22.605469 1.996094 22.78125 1.835938 22.964844 1.691406 C 21.976562 0.984375 20.855469 0.585938 19.558594 0.585938 C 19.410156 0.585938 19.261719 0.59375 19.109375 0.605469 "/>
<path style=" stroke:none;fill-rule:nonzero;fill:rgb(36.862746%,77.254903%,92.941177%);fill-opacity:1;" d="M 22.441406 2.152344 C 22.726562 2.417969 22.992188 2.707031 23.238281 3.011719 C 23.476562 2.84375 23.71875 2.683594 23.964844 2.527344 C 23.65625 2.214844 23.320312 1.929688 22.964844 1.675781 C 22.777344 1.824219 22.605469 1.980469 22.441406 2.152344 "/>
<path style=" stroke:none;fill-rule:nonzero;fill:url(#linear15);" d="M 19.109375 0.589844 C 19.257812 0.578125 19.410156 0.574219 19.558594 0.574219 C 20.851562 0.574219 21.976562 0.976562 22.964844 1.675781 C 24.011719 0.851562 25.273438 0.5625 27.027344 0.5625 L 18.53125 0.5625 C 18.726562 0.5625 18.917969 0.574219 19.109375 0.589844 "/>
<path style=" stroke:none;fill-rule:nonzero;fill:url(#linear16);" d="M 27.027344 0.5625 C 25.273438 0.5625 24.011719 0.851562 22.964844 1.675781 C 23.320312 1.929688 23.65625 2.214844 23.960938 2.527344 C 25.417969 1.597656 26.859375 0.984375 28.277344 0.71875 C 28.8125 0.617188 29.351562 0.5625 29.894531 0.5625 Z M 27.027344 0.5625 "/>
<path style=" stroke:none;fill-rule:nonzero;fill:url(#linear17);" d="M 47.851562 15.570312 C 48.605469 13.238281 49.46875 10.410156 50.539062 6.976562 C 51.503906 3.882812 53.214844 1.570312 56.425781 0.5625 C 56.507812 0.386719 56.589844 0.210938 56.671875 0.0351562 C 51.4375 0.347656 48.992188 3.015625 47.761719 6.96875 C 45.609375 13.863281 44.304688 18.335938 43.050781 21.183594 C 44.65625 19.648438 46.257812 17.761719 47.851562 15.570312 "/>
<path style=" stroke:none;fill-rule:nonzero;fill:rgb(0%,0%,0%);fill-opacity:1;" d="M 55.527344 24.050781 L 54.933594 24.050781 L 54.933594 25.898438 L 54.691406 25.898438 L 54.691406 24.050781 L 54.097656 24.050781 L 54.097656 23.832031 L 55.527344 23.832031 Z M 57.957031 25.898438 L 57.714844 25.898438 L 57.714844 24.511719 C 57.714844 24.402344 57.722656 24.265625 57.734375 24.109375 C 57.710938 24.203125 57.6875 24.269531 57.671875 24.3125 L 56.96875 25.898438 L 56.851562 25.898438 L 56.144531 24.324219 C 56.125 24.28125 56.105469 24.207031 56.082031 24.109375 L 56.074219 24.109375 C 56.082031 24.191406 56.085938 24.328125 56.085938 24.515625 L 56.085938 25.898438 L 55.855469 25.898438 L 55.855469 23.832031 L 56.171875 23.832031 L 56.804688 25.273438 C 56.855469 25.382812 56.882812 25.464844 56.898438 25.523438 L 56.90625 25.523438 C 56.949219 25.410156 56.984375 25.324219 57.007812 25.269531 L 57.652344 23.832031 L 57.957031 23.832031 Z M 57.957031 25.898438 "/>
</g>
</svg>
