<?xml version="1.0" encoding="UTF-8"?>
<svg xmlns="http://www.w3.org/2000/svg" xmlns:xlink="http://www.w3.org/1999/xlink" width="65px" height="64px" viewBox="0 0 64 64" version="1.1">
<defs>
<filter id="alpha" filterUnits="objectBoundingBox" x="0%" y="0%" width="100%" height="100%">
  <feColorMatrix type="matrix" in="SourceGraphic" values="0 0 0 0 1 0 0 0 0 1 0 0 0 0 1 0 0 0 1 0"/>
</filter>
<mask id="mask0">
  <g filter="url(#alpha)">
<rect x="0" y="0" width="64" height="64" style="fill:rgb(0%,0%,0%);fill-opacity:0.101961;stroke:none;"/>
  </g>
</mask>
<clipPath id="clip1">
  <rect x="0" y="0" width="64" height="64"/>
</clipPath>
<g id="surface5" clip-path="url(#clip1)">
<path style=" stroke:none;fill-rule:nonzero;fill:rgb(0%,0%,0%);fill-opacity:1;" d="M 33.453125 14 L 11.957031 14 C 10.417969 19.714844 11.605469 25.824219 15.167969 30.53125 C 18.734375 35.234375 24.269531 37.996094 30.144531 38 C 30.695312 38 31.238281 37.972656 31.777344 37.929688 L 31.789062 38.003906 C 24.800781 38.191406 19.234375 43.953125 19.234375 51 C 19.234375 51.335938 19.246094 51.667969 19.269531 52 L 33.453125 52 C 34.910156 51.996094 36.09375 50.804688 36.097656 49.335938 L 36.097656 16.664062 C 36.09375 15.195312 34.910156 14.003906 33.453125 14 Z M 33.453125 14 "/>
</g>
<mask id="mask1">
  <g filter="url(#alpha)">
<rect x="0" y="0" width="64" height="64" style="fill:rgb(0%,0%,0%);fill-opacity:0.2;stroke:none;"/>
  </g>
</mask>
<clipPath id="clip2">
  <rect x="0" y="0" width="64" height="64"/>
</clipPath>
<g id="surface8" clip-path="url(#clip2)">
<path style=" stroke:none;fill-rule:nonzero;fill:rgb(0%,0%,0%);fill-opacity:1;" d="M 31.46875 16 L 11.527344 16 C 10.660156 21.492188 12.222656 27.09375 15.804688 31.328125 C 19.386719 35.558594 24.625 37.996094 30.144531 38 C 30.695312 38 31.238281 37.972656 31.777344 37.929688 L 31.789062 38.003906 C 27.90625 38.109375 24.277344 39.972656 21.910156 43.074219 C 19.542969 46.179688 18.683594 50.191406 19.578125 54 L 31.46875 54 C 32.925781 53.996094 34.109375 52.804688 34.113281 51.335938 L 34.113281 18.664062 C 34.109375 17.195312 32.925781 16.003906 31.46875 16 Z M 31.46875 16 "/>
</g>
<mask id="mask2">
  <g filter="url(#alpha)">
<rect x="0" y="0" width="64" height="64" style="fill:rgb(0%,0%,0%);fill-opacity:0.2;stroke:none;"/>
  </g>
</mask>
<clipPath id="clip3">
  <rect x="0" y="0" width="64" height="64"/>
</clipPath>
<g id="surface11" clip-path="url(#clip3)">
<path style=" stroke:none;fill-rule:nonzero;fill:rgb(0%,0%,0%);fill-opacity:1;" d="M 31.46875 16 L 11.527344 16 C 10.660156 21.492188 12.222656 27.09375 15.804688 31.328125 C 19.386719 35.558594 24.625 37.996094 30.144531 38 C 30.695312 38 31.238281 37.972656 31.777344 37.929688 L 31.789062 38.003906 C 25.183594 38.179688 19.777344 43.359375 19.269531 50 L 31.46875 50 C 32.925781 49.996094 34.109375 48.804688 34.113281 47.335938 L 34.113281 18.664062 C 34.109375 17.195312 32.925781 16.003906 31.46875 16 Z M 31.46875 16 "/>
</g>
<mask id="mask3">
  <g filter="url(#alpha)">
<rect x="0" y="0" width="64" height="64" style="fill:rgb(0%,0%,0%);fill-opacity:0.2;stroke:none;"/>
  </g>
</mask>
<clipPath id="clip4">
  <rect x="0" y="0" width="64" height="64"/>
</clipPath>
<g id="surface14" clip-path="url(#clip4)">
<path style=" stroke:none;fill-rule:nonzero;fill:rgb(0%,0%,0%);fill-opacity:1;" d="M 29.484375 16 L 11.527344 16 C 10.660156 21.492188 12.222656 27.09375 15.804688 31.328125 C 19.386719 35.558594 24.625 37.996094 30.144531 38 C 30.695312 38 31.238281 37.972656 31.777344 37.929688 L 31.789062 38.003906 C 25.183594 38.179688 19.777344 43.359375 19.269531 50 L 29.484375 50 C 30.941406 49.996094 32.125 48.804688 32.128906 47.335938 L 32.128906 18.664062 C 32.125 17.195312 30.941406 16.003906 29.484375 16 Z M 29.484375 16 "/>
</g>
</defs>
<g id="surface1">
<path style=" stroke:none;fill-rule:nonzero;fill:rgb(1.176471%,42.352942%,43.921569%);fill-opacity:1;" d="M 48.992188 19 C 48.992188 8.507812 40.554688 0 30.144531 0 C 19.734375 0 11.296875 8.507812 11.296875 19 C 11.296875 29.492188 19.734375 38 30.144531 38 C 40.554688 38 48.992188 29.492188 48.992188 19 Z M 48.992188 19 "/>
<path style=" stroke:none;fill-rule:nonzero;fill:rgb(10.196079%,60.784316%,63.137257%);fill-opacity:1;" d="M 63.871094 35.75 C 63.871094 26.773438 56.65625 19.5 47.753906 19.5 C 38.851562 19.5 31.632812 26.773438 31.632812 35.75 C 31.632812 44.726562 38.851562 52 47.753906 52 C 56.65625 52 63.871094 44.726562 63.871094 35.75 Z M 63.871094 35.75 "/>
<path style=" stroke:none;fill-rule:nonzero;fill:rgb(21.568628%,77.64706%,81.568629%);fill-opacity:1;" d="M 45.023438 51 C 45.023438 43.820312 39.25 38 32.128906 38 C 25.007812 38 19.234375 43.820312 19.234375 51 C 19.234375 58.179688 25.007812 64 32.128906 64 C 39.25 64 45.023438 58.179688 45.023438 51 Z M 45.023438 51 "/>
<use xlink:href="#surface5" mask="url(#mask0)"/>
<use xlink:href="#surface8" mask="url(#mask1)"/>
<use xlink:href="#surface11" mask="url(#mask2)"/>
<use xlink:href="#surface14" mask="url(#mask3)"/>
<path style=" stroke:none;fill-rule:nonzero;fill:rgb(1.176471%,47.058824%,48.627451%);fill-opacity:1;" d="M 3.03125 16 L 29.484375 16 C 30.945312 16 32.128906 17.195312 32.128906 18.664062 L 32.128906 45.335938 C 32.128906 46.804688 30.945312 48 29.484375 48 L 3.03125 48 C 1.570312 48 0.382812 46.804688 0.382812 45.335938 L 0.382812 18.664062 C 0.382812 17.195312 1.570312 16 3.03125 16 Z M 3.03125 16 "/>
<path style=" stroke:none;fill-rule:nonzero;fill:rgb(100%,100%,100%);fill-opacity:1;" d="M 11.632812 31.648438 C 10.964844 31.203125 10.40625 30.609375 10.003906 29.910156 C 9.609375 29.179688 9.414062 28.359375 9.433594 27.53125 C 9.398438 26.40625 9.777344 25.308594 10.492188 24.449219 C 11.242188 23.585938 12.214844 22.945312 13.300781 22.601562 C 14.539062 22.1875 15.835938 21.984375 17.140625 22 C 18.855469 21.9375 20.566406 22.179688 22.195312 22.714844 L 22.195312 26.3125 C 21.488281 25.882812 20.714844 25.5625 19.910156 25.371094 C 19.035156 25.15625 18.132812 25.046875 17.234375 25.046875 C 16.28125 25.011719 15.339844 25.214844 14.484375 25.632812 C 13.824219 25.921875 13.394531 26.574219 13.394531 27.300781 C 13.390625 27.738281 13.554688 28.164062 13.855469 28.480469 C 14.214844 28.851562 14.632812 29.15625 15.101562 29.375 C 15.621094 29.636719 16.398438 29.984375 17.433594 30.414062 C 17.546875 30.453125 17.660156 30.496094 17.769531 30.550781 C 18.789062 30.953125 19.773438 31.441406 20.710938 32.015625 C 21.421875 32.457031 22.019531 33.0625 22.449219 33.78125 C 22.898438 34.59375 23.113281 35.515625 23.078125 36.445312 C 23.128906 37.597656 22.78125 38.734375 22.089844 39.652344 C 21.402344 40.5 20.480469 41.125 19.441406 41.445312 C 18.21875 41.832031 16.945312 42.019531 15.667969 42 C 14.523438 42.003906 13.378906 41.910156 12.25 41.714844 C 11.296875 41.5625 10.363281 41.292969 9.472656 40.90625 L 9.472656 37.105469 C 10.324219 37.714844 11.273438 38.171875 12.28125 38.453125 C 13.285156 38.769531 14.324219 38.9375 15.375 38.953125 C 16.34375 39.015625 17.316406 38.808594 18.175781 38.355469 C 18.777344 38.007812 19.136719 37.355469 19.121094 36.660156 C 19.125 36.175781 18.933594 35.707031 18.59375 35.363281 C 18.164062 34.941406 17.671875 34.597656 17.132812 34.339844 C 16.511719 34.023438 15.597656 33.613281 14.382812 33.101562 C 13.421875 32.710938 12.5 32.222656 11.632812 31.648438 Z M 11.632812 31.648438 "/>
</g>
</svg>
