<?xml version="1.0" encoding="UTF-8"?>
<svg xmlns="http://www.w3.org/2000/svg" xmlns:xlink="http://www.w3.org/1999/xlink" width="61px" height="64px" viewBox="0 0 61 64" version="1.1">
<g id="surface1">
<path style=" stroke:none;fill-rule:nonzero;fill:rgb(70.19608%,70.19608%,70.19608%);fill-opacity:1;" d="M 30.40625 0.367188 L 0.203125 10.84375 L 4.976562 49.851562 L 30.4375 63.648438 L 56.03125 49.664062 L 60.804688 10.660156 Z M 30.40625 0.367188 "/>
<path style=" stroke:none;fill-rule:nonzero;fill:rgb(65.098041%,7.058824%,5.098039%);fill-opacity:1;" d="M 57.789062 12.914062 L 30.335938 3.683594 L 30.335938 60.351562 L 53.34375 47.800781 Z M 57.789062 12.914062 "/>
<path style=" stroke:none;fill-rule:nonzero;fill:rgb(86.666667%,10.588235%,8.627451%);fill-opacity:1;" d="M 3.59375 13.078125 L 7.679688 47.964844 L 30.335938 60.351562 L 30.335938 3.683594 Z M 3.59375 13.078125 "/>
<path style=" stroke:none;fill-rule:nonzero;fill:rgb(94.901961%,94.901961%,94.901961%);fill-opacity:1;" d="M 37.894531 33.851562 L 30.335938 37.335938 L 22.371094 37.335938 L 18.625 46.566406 L 11.664062 46.691406 L 30.335938 5.742188 Z M 37.164062 32.097656 L 30.386719 18.871094 L 24.828125 31.867188 L 30.335938 31.867188 Z M 37.164062 32.097656 "/>
<path style=" stroke:none;fill-rule:nonzero;fill:rgb(70.19608%,70.19608%,70.19608%);fill-opacity:1;" d="M 30.335938 5.742188 L 30.386719 18.871094 L 36.691406 31.878906 L 30.347656 31.878906 L 30.335938 37.324219 L 39.105469 37.335938 L 43.207031 46.695312 L 49.871094 46.816406 Z M 30.335938 5.742188 "/>
</g>
</svg>
